# Blender v2.79 (sub 0) OBJ File: ''
# www.blender.org
mtllib cape.mtl
o Cube_Cube.001
v 0.460000 0.000000 0.820000
v 0.460000 1.000000 0.820000
v 0.460000 0.000000 0.180000
v 0.460000 1.000000 0.180000
v 0.540000 0.000000 0.820000
v 0.540000 1.000000 0.820000
v 0.540000 0.000000 0.180000
v 0.540000 1.000000 0.180000
vt 0.343807 0.968597
vt 0.187707 0.468833
vt 0.343807 0.468910
vt 0.187538 0.999635
vt 0.172056 0.468995
vt 0.187536 0.468995
vt 0.171975 0.968875
vt 0.015731 0.469072
vt 0.171901 0.468995
vt 0.015412 0.968609
vt -0.000003 0.469031
vt 0.015489 0.469108
vt 0.343774 0.999949
vt 0.187718 0.968991
vt 0.343735 0.969221
vt 0.171988 0.999907
vt 0.000103 0.968971
vt 0.171940 0.969262
vt 0.187669 0.968828
vt 0.172130 0.999635
vt 0.015574 0.968875
vt 0.000112 0.968609
vt 0.187718 0.999872
vt 0.000103 1.000101
vn -1.0000 0.0000 0.0000
vn 0.0000 0.0000 -1.0000
vn 1.0000 0.0000 0.0000
vn 0.0000 0.0000 1.0000
vn 0.0000 -1.0000 0.0000
vn 0.0000 1.0000 0.0000
usemtl Material.002
s off
f 2/1/1 3/2/1 1/3/1
f 4/4/2 7/5/2 3/6/2
f 8/7/3 5/8/3 7/9/3
f 6/10/4 1/11/4 5/12/4
f 7/13/5 1/14/5 3/15/5
f 4/16/6 6/17/6 8/18/6
f 2/1/1 4/19/1 3/2/1
f 4/4/2 8/20/2 7/5/2
f 8/7/3 6/21/3 5/8/3
f 6/10/4 2/22/4 1/11/4
f 7/13/5 5/23/5 1/14/5
f 4/16/6 2/24/6 6/17/6
