# Blender v2.78 (sub 0) OBJ File: 'drying_rack.blend'
# www.blender.org
mtllib drying_rack.mtl
o Cube.010
v 0.019488 0.916826 0.014997
v 0.019488 0.916826 0.094997
v 0.019488 1.000826 0.094997
v 0.019488 1.000826 0.014997
v 0.979488 0.916826 0.014997
v 0.979488 0.916826 0.094997
v 0.979488 1.000826 0.094997
v 0.979488 1.000826 0.014997
v 0.019488 0.916826 0.897423
v 0.019488 0.916826 0.977423
v 0.019488 1.000826 0.977423
v 0.019488 1.000826 0.897423
v 0.979488 0.916826 0.897423
v 0.979488 0.916826 0.977423
v 0.979488 1.000826 0.977423
v 0.979488 1.000826 0.897423
v 0.750738 0.999956 0.044291
v 0.750738 0.919956 0.044291
v 0.670738 0.919956 0.044291
v 0.670738 0.999956 0.044291
v 0.750738 0.999955 0.924291
v 0.750738 0.919955 0.924291
v 0.670738 0.919955 0.924291
v 0.670738 0.999955 0.924291
v 0.295619 0.999955 0.044291
v 0.295619 0.919955 0.044291
v 0.215619 0.919955 0.044291
v 0.215619 0.999955 0.044291
v 0.295619 0.999955 0.924291
v 0.295619 0.919955 0.924291
v 0.215619 0.919955 0.924291
v 0.215619 0.999955 0.924291
v 0.523016 0.999956 0.044291
v 0.523016 0.919956 0.044291
v 0.443016 0.919956 0.044291
v 0.443016 0.999956 0.044291
v 0.523016 0.999955 0.924291
v 0.523016 0.919955 0.924291
v 0.443016 0.919956 0.924291
v 0.443016 0.999956 0.924291
v 0.980291 0.999956 0.044291
v 0.980291 0.919956 0.044291
v 0.900291 0.919956 0.044291
v 0.900291 0.999956 0.044291
v 0.980291 0.999955 0.924291
v 0.980291 0.919955 0.924291
v 0.900291 0.919955 0.924291
v 0.900291 0.999955 0.924291
v 0.094314 0.999955 0.044291
v 0.094314 0.919955 0.044291
v 0.014314 0.919955 0.044291
v 0.014314 0.999956 0.044291
v 0.094314 0.999955 0.924291
v 0.094314 0.919955 0.924291
v 0.014314 0.919955 0.924291
v 0.014314 0.999955 0.924291
v 0.096314 -0.000000 0.017114
v 0.096314 -0.000000 0.097114
v 0.012314 -0.000000 0.097114
v 0.012314 -0.000000 0.017114
v 0.096314 1.000000 0.017114
v 0.096314 1.000000 0.097114
v 0.012314 1.000000 0.097114
v 0.012314 1.000000 0.017114
v 0.982767 -0.000000 0.017114
v 0.982767 -0.000000 0.097114
v 0.898767 -0.000000 0.097114
v 0.898767 -0.000000 0.017114
v 0.982768 1.000000 0.017114
v 0.982767 1.000000 0.097114
v 0.898767 1.000000 0.097114
v 0.898768 1.000000 0.017114
v 0.982767 -0.000000 0.897423
v 0.982767 -0.000000 0.977423
v 0.898767 -0.000000 0.977423
v 0.898767 -0.000000 0.897423
v 0.982768 1.000000 0.897423
v 0.982767 1.000000 0.977423
v 0.898767 1.000000 0.977423
v 0.898768 1.000000 0.897423
v 0.096924 -0.000000 0.897423
v 0.096924 -0.000000 0.977423
v 0.012924 -0.000000 0.977423
v 0.012924 -0.000000 0.897423
v 0.096924 1.000000 0.897423
v 0.096924 1.000000 0.977423
v 0.012924 1.000000 0.977423
v 0.012924 1.000000 0.897423
vt 0.0363 0.6034
vt 0.0006 0.6410
vt 0.0006 0.6034
vt 0.0363 0.5634
vt 0.0006 0.5259
vt 0.0363 0.5259
vt 0.5068 0.6034
vt 0.0781 0.6392
vt 0.0781 0.6034
vt 0.5068 0.5259
vt 0.0781 0.5634
vt 0.0781 0.5259
vt 0.5068 0.6404
vt 0.0781 0.6761
vt 0.0781 0.6404
vt 0.0781 0.6022
vt 0.5068 0.5647
vt 0.5068 0.6022
vt 0.0769 0.5211
vt 0.0394 0.4854
vt 0.0769 0.4854
vt 0.0363 0.6022
vt 0.0006 0.5647
vt 0.0363 0.5647
vt 0.5068 0.6774
vt 0.0781 0.7131
vt 0.0781 0.6774
vt 0.5068 0.4484
vt 0.0781 0.4859
vt 0.0781 0.4484
vt 0.5068 0.7144
vt 0.0781 0.7501
vt 0.0781 0.7144
vt 0.0781 0.5247
vt 0.5068 0.4872
vt 0.5068 0.5247
vt 0.6421 0.2982
vt 0.6064 0.3339
vt 0.6064 0.2982
vt 0.6064 0.1490
vt 0.6421 0.1133
vt 0.6421 0.1490
vt 0.4723 0.8979
vt 0.8653 0.8622
vt 0.8653 0.8979
vt 0.0781 0.8610
vt 0.4711 0.8253
vt 0.4711 0.8610
vt 0.5081 0.7501
vt 0.9011 0.7144
vt 0.9011 0.7501
vt 0.8653 0.7883
vt 0.4723 0.8240
vt 0.4723 0.7883
vt 0.0394 0.6333
vt 0.0751 0.6690
vt 0.0394 0.6690
vt 0.6064 0.2230
vt 0.6421 0.1872
vt 0.6421 0.2230
vt 0.5081 0.6374
vt 0.9011 0.6017
vt 0.9011 0.6374
vt 0.0781 0.7870
vt 0.4711 0.7513
vt 0.4711 0.7870
vt 0.0781 0.9719
vt 0.4711 0.9362
vt 0.4711 0.9719
vt 0.9994 0.0006
vt 0.6064 0.0363
vt 0.6064 0.0006
vt 0.6064 0.2612
vt 0.6421 0.2969
vt 0.6064 0.2969
vt 0.6421 0.1860
vt 0.6064 0.1503
vt 0.6421 0.1503
vt 0.0781 0.9349
vt 0.4711 0.8992
vt 0.4711 0.9349
vt 0.4723 0.8610
vt 0.8653 0.8253
vt 0.8653 0.8610
vt 0.5081 0.4859
vt 0.9011 0.4502
vt 0.9011 0.4859
vt 0.8653 0.8992
vt 0.4723 0.9349
vt 0.4723 0.8992
vt 0.6421 0.4078
vt 0.6064 0.3721
vt 0.6421 0.3721
vt 0.6064 0.2599
vt 0.6421 0.2242
vt 0.6421 0.2599
vt 0.5081 0.5265
vt 0.9011 0.4908
vt 0.9011 0.5265
vt 0.0781 0.8240
vt 0.4711 0.7883
vt 0.4711 0.8240
vt 0.5081 0.6004
vt 0.9011 0.5647
vt 0.9011 0.6004
vt 0.8653 0.7513
vt 0.4723 0.7870
vt 0.4723 0.7513
vt 0.6064 0.4448
vt 0.6421 0.4091
vt 0.6421 0.4448
vt 0.6421 0.3708
vt 0.6064 0.3351
vt 0.6421 0.3351
vt 0.5081 0.5634
vt 0.9011 0.5277
vt 0.9011 0.5634
vt 0.5081 0.6761
vt 0.9011 0.6404
vt 0.9011 0.6761
vt 0.4723 0.9719
vt 0.8653 0.9362
vt 0.8653 0.9719
vt 0.4711 0.8622
vt 0.0781 0.8979
vt 0.0781 0.8622
vt 0.0006 0.5247
vt 0.0363 0.4872
vt 0.0363 0.5247
vt 0.0394 0.6320
vt 0.0769 0.5963
vt 0.0769 0.6320
vt 0.4203 0.4472
vt 0.3846 0.0006
vt 0.4203 0.0006
vt 0.0769 0.4472
vt 0.0394 0.0006
vt 0.0769 0.0006
vt 0.5312 0.4472
vt 0.4955 0.0006
vt 0.5312 0.0006
vt 0.1944 0.0006
vt 0.2319 0.4472
vt 0.1944 0.4472
vt 0.6064 0.1121
vt 0.6421 0.0746
vt 0.6421 0.1121
vt 0.0394 0.4842
vt 0.0769 0.4484
vt 0.0769 0.4842
vt 0.3834 0.4472
vt 0.3476 0.0006
vt 0.3834 0.0006
vt 0.0381 0.4472
vt 0.0006 0.0006
vt 0.0381 0.0006
vt 0.3464 0.4472
vt 0.3107 0.0006
vt 0.3464 0.0006
vt 0.0781 0.0006
vt 0.1156 0.4472
vt 0.0781 0.4472
vt 0.0006 0.4859
vt 0.0363 0.4484
vt 0.0363 0.4859
vt 0.6064 0.0733
vt 0.6439 0.0376
vt 0.6439 0.0733
vt 0.6052 0.4472
vt 0.5694 0.0006
vt 0.6052 0.0006
vt 0.1932 0.4472
vt 0.1556 0.0006
vt 0.1932 0.0006
vt 0.4943 0.4472
vt 0.4585 0.0006
vt 0.4943 0.0006
vt 0.1169 0.0006
vt 0.1544 0.4472
vt 0.1169 0.4472
vt 0.0769 0.5581
vt 0.0394 0.5224
vt 0.0769 0.5224
vt 0.0394 0.5951
vt 0.0769 0.5593
vt 0.0769 0.5951
vt 0.5682 0.4472
vt 0.5325 0.0006
vt 0.5682 0.0006
vt 0.2707 0.4472
vt 0.2331 0.0006
vt 0.2707 0.0006
vt 0.4573 0.4472
vt 0.4216 0.0006
vt 0.4573 0.0006
vt 0.2719 0.0006
vt 0.3094 0.4472
vt 0.2719 0.4472
vt 0.0363 0.6410
vt 0.0006 0.5634
vt 0.5068 0.6392
vt 0.5068 0.5634
vt 0.5068 0.6761
vt 0.0781 0.5647
vt 0.0394 0.5211
vt 0.0006 0.6022
vt 0.5068 0.7131
vt 0.5068 0.4859
vt 0.5068 0.7501
vt 0.0781 0.4872
vt 0.6421 0.3339
vt 0.6064 0.1133
vt 0.4723 0.8622
vt 0.0781 0.8253
vt 0.5081 0.7144
vt 0.8653 0.8240
vt 0.0751 0.6333
vt 0.6064 0.1872
vt 0.5081 0.6017
vt 0.0781 0.7513
vt 0.0781 0.9362
vt 0.9994 0.0363
vt 0.6421 0.2612
vt 0.6064 0.1860
vt 0.0781 0.8992
vt 0.4723 0.8253
vt 0.5081 0.4502
vt 0.8653 0.9349
vt 0.6064 0.4078
vt 0.6064 0.2242
vt 0.5081 0.4908
vt 0.0781 0.7883
vt 0.5081 0.5647
vt 0.8653 0.7870
vt 0.6064 0.4091
vt 0.6064 0.3708
vt 0.5081 0.5277
vt 0.5081 0.6404
vt 0.4723 0.9362
vt 0.4711 0.8979
vt 0.0006 0.4872
vt 0.0394 0.5963
vt 0.3846 0.4472
vt 0.0394 0.4472
vt 0.4955 0.4472
vt 0.2319 0.0006
vt 0.6064 0.0746
vt 0.0394 0.4484
vt 0.3476 0.4472
vt 0.0006 0.4472
vt 0.3107 0.4472
vt 0.1156 0.0006
vt 0.0006 0.4484
vt 0.6064 0.0376
vt 0.5694 0.4472
vt 0.1556 0.4472
vt 0.4585 0.4472
vt 0.1544 0.0006
vt 0.0394 0.5581
vt 0.0394 0.5593
vt 0.5325 0.4472
vt 0.2331 0.4472
vt 0.4216 0.4472
vt 0.3094 0.0006
vn -1.0000 0.0000 0.0000
vn 1.0000 -0.0000 0.0000
vn -0.0000 -1.0000 0.0000
vn -0.0000 0.0000 1.0000
vn 0.0000 1.0000 0.0000
vn 0.0000 -0.0000 -1.0000
usemtl Material.004
s off
f 2/1/1 4/2/1 1/3/1
f 8/4/2 6/5/2 5/6/2
f 5/7/3 2/8/3 1/9/3
f 6/10/4 3/11/4 2/12/4
f 7/13/5 4/14/5 3/15/5
f 1/16/6 8/17/6 5/18/6
f 10/19/1 12/20/1 9/21/1
f 16/22/2 14/23/2 13/24/2
f 13/25/3 10/26/3 9/27/3
f 14/28/4 11/29/4 10/30/4
f 15/31/5 12/32/5 11/33/5
f 9/34/6 16/35/6 13/36/6
f 18/37/6 20/38/6 17/39/6
f 24/40/4 22/41/4 21/42/4
f 21/43/2 18/44/2 17/45/2
f 22/46/3 19/47/3 18/48/3
f 23/49/1 20/50/1 19/51/1
f 17/52/5 24/53/5 21/54/5
f 26/55/6 28/56/6 25/57/6
f 32/58/4 30/59/4 29/60/4
f 29/61/2 26/62/2 25/63/2
f 30/64/3 27/65/3 26/66/3
f 31/67/1 28/68/1 27/69/1
f 25/70/5 32/71/5 29/72/5
f 33/73/6 35/74/6 36/75/6
f 37/76/4 39/77/4 38/78/4
f 37/79/2 34/80/2 33/81/2
f 38/82/3 35/83/3 34/84/3
f 39/85/1 36/86/1 35/87/1
f 33/88/5 40/89/5 37/90/5
f 42/91/6 44/92/6 41/93/6
f 48/94/4 46/95/4 45/96/4
f 45/97/2 42/98/2 41/99/2
f 46/100/3 43/101/3 42/102/3
f 47/103/1 44/104/1 43/105/1
f 41/106/5 48/107/5 45/108/5
f 49/109/6 51/110/6 52/111/6
f 53/112/4 55/113/4 54/114/4
f 53/115/2 50/116/2 49/117/2
f 54/118/3 51/119/3 50/120/3
f 55/121/1 52/122/1 51/123/1
f 49/124/5 56/125/5 53/126/5
f 58/127/3 60/128/3 57/129/3
f 64/130/5 62/131/5 61/132/5
f 61/133/2 58/134/2 57/135/2
f 62/136/4 59/137/4 58/138/4
f 63/139/1 60/140/1 59/141/1
f 57/142/6 64/143/6 61/144/6
f 66/145/3 68/146/3 65/147/3
f 72/148/5 70/149/5 69/150/5
f 69/151/2 66/152/2 65/153/2
f 70/154/4 67/155/4 66/156/4
f 71/157/1 68/158/1 67/159/1
f 65/160/6 72/161/6 69/162/6
f 74/163/3 76/164/3 73/165/3
f 80/166/5 78/167/5 77/168/5
f 77/169/2 74/170/2 73/171/2
f 78/172/4 75/173/4 74/174/4
f 79/175/1 76/176/1 75/177/1
f 73/178/6 80/179/6 77/180/6
f 82/181/3 84/182/3 81/183/3
f 88/184/5 86/185/5 85/186/5
f 85/187/2 82/188/2 81/189/2
f 86/190/4 83/191/4 82/192/4
f 87/193/1 84/194/1 83/195/1
f 81/196/6 88/197/6 85/198/6
f 2/1/1 3/199/1 4/2/1
f 8/4/2 7/200/2 6/5/2
f 5/7/3 6/201/3 2/8/3
f 6/10/4 7/202/4 3/11/4
f 7/13/5 8/203/5 4/14/5
f 1/16/6 4/204/6 8/17/6
f 10/19/1 11/205/1 12/20/1
f 16/22/2 15/206/2 14/23/2
f 13/25/3 14/207/3 10/26/3
f 14/28/4 15/208/4 11/29/4
f 15/31/5 16/209/5 12/32/5
f 9/34/6 12/210/6 16/35/6
f 18/37/6 19/211/6 20/38/6
f 24/40/4 23/212/4 22/41/4
f 21/43/2 22/213/2 18/44/2
f 22/46/3 23/214/3 19/47/3
f 23/49/1 24/215/1 20/50/1
f 17/52/5 20/216/5 24/53/5
f 26/55/6 27/217/6 28/56/6
f 32/58/4 31/218/4 30/59/4
f 29/61/2 30/219/2 26/62/2
f 30/64/3 31/220/3 27/65/3
f 31/67/1 32/221/1 28/68/1
f 25/70/5 28/222/5 32/71/5
f 33/73/6 34/223/6 35/74/6
f 37/76/4 40/224/4 39/77/4
f 37/79/2 38/225/2 34/80/2
f 38/82/3 39/226/3 35/83/3
f 39/85/1 40/227/1 36/86/1
f 33/88/5 36/228/5 40/89/5
f 42/91/6 43/229/6 44/92/6
f 48/94/4 47/230/4 46/95/4
f 45/97/2 46/231/2 42/98/2
f 46/100/3 47/232/3 43/101/3
f 47/103/1 48/233/1 44/104/1
f 41/106/5 44/234/5 48/107/5
f 49/109/6 50/235/6 51/110/6
f 53/112/4 56/236/4 55/113/4
f 53/115/2 54/237/2 50/116/2
f 54/118/3 55/238/3 51/119/3
f 55/121/1 56/239/1 52/122/1
f 49/124/5 52/240/5 56/125/5
f 58/127/3 59/241/3 60/128/3
f 64/130/5 63/242/5 62/131/5
f 61/133/2 62/243/2 58/134/2
f 62/136/4 63/244/4 59/137/4
f 63/139/1 64/245/1 60/140/1
f 57/142/6 60/246/6 64/143/6
f 66/145/3 67/247/3 68/146/3
f 72/148/5 71/248/5 70/149/5
f 69/151/2 70/249/2 66/152/2
f 70/154/4 71/250/4 67/155/4
f 71/157/1 72/251/1 68/158/1
f 65/160/6 68/252/6 72/161/6
f 74/163/3 75/253/3 76/164/3
f 80/166/5 79/254/5 78/167/5
f 77/169/2 78/255/2 74/170/2
f 78/172/4 79/256/4 75/173/4
f 79/175/1 80/257/1 76/176/1
f 73/178/6 76/258/6 80/179/6
f 82/181/3 83/259/3 84/182/3
f 88/184/5 87/260/5 86/185/5
f 85/187/2 86/261/2 82/188/2
f 86/190/4 87/262/4 83/191/4
f 87/193/1 88/263/1 84/194/1
f 81/196/6 84/264/6 88/197/6
