# Blender v2.78 (sub 0) OBJ File: 'new_block.blend'
# www.blender.org
mtllib leaf_mulcher.mtl
o Cube.004
v 0.645000 1.071931 0.655000
v 0.355000 1.071931 0.655000
v 0.355000 1.071931 0.345000
v 0.645000 1.071931 0.345000
v 0.575000 1.071931 0.585000
v 0.425000 1.071931 0.585000
v 0.425000 1.071931 0.415000
v 0.575000 1.071931 0.415000
v 0.645000 0.931931 0.655000
v 0.355000 0.931931 0.655000
v 0.355000 0.931931 0.345000
v 0.645000 0.931931 0.345000
v 0.575000 0.931931 0.585000
v 0.425000 0.931931 0.585000
v 0.425000 0.931931 0.415000
v 0.575000 0.931931 0.415000
v 0.575000 0.931931 0.585000
v 0.425000 0.931931 0.585000
v 0.575000 1.071931 0.415000
v 0.575000 0.931931 0.415000
v 0.355000 1.071931 0.345000
v 0.425000 1.071931 0.415000
v 0.645000 0.931931 0.655000
v 0.355000 0.931931 0.345000
v 0.645000 0.931931 0.345000
v 0.355000 1.071931 0.655000
v 0.355000 0.931931 0.655000
v 0.425000 0.931931 0.415000
v 0.575000 1.071931 0.585000
v 0.645000 1.071931 0.655000
v 0.645000 1.071931 0.345000
v 0.425000 1.071931 0.585000
v 1.025200 1.935845 1.020700
v -0.025200 1.935845 1.020700
v -0.025200 1.935845 -0.020700
v 1.025200 1.935845 -0.020700
v 0.924200 1.935845 0.893700
v 0.075800 1.935845 0.893700
v 0.075800 1.935845 0.106300
v 0.924200 1.935845 0.106300
v 1.025200 1.795845 1.020700
v -0.025200 1.795845 1.020700
v -0.025200 1.795845 -0.020700
v 1.025200 1.795845 -0.020700
v 0.924200 1.795845 0.893700
v 0.075800 1.795845 0.893700
v 0.075800 1.795845 0.106300
v 0.924200 1.795845 0.106300
v 0.924200 1.795845 0.893700
v 0.075800 1.795845 0.893700
v 0.924200 1.935845 0.106300
v 0.924200 1.795845 0.106300
v -0.025200 1.935845 -0.020700
v 0.075800 1.935845 0.106300
v 1.025200 1.795845 1.020700
v -0.025200 1.795845 -0.020700
v 1.025200 1.795845 -0.020700
v -0.025200 1.935845 1.020700
v -0.025200 1.795845 1.020700
v 0.075800 1.795845 0.106300
v 0.924200 1.935845 0.893700
v 1.025200 1.935845 1.020700
v 1.025200 1.935845 -0.020700
v 0.075800 1.935845 0.893700
v 1.066800 2.070000 1.057600
v -0.066800 2.070000 1.057600
v -0.066800 2.070000 -0.057600
v 1.066800 2.070000 -0.057600
v 0.957800 2.070000 0.921600
v 0.042200 2.070000 0.921600
v 0.042200 2.070000 0.078400
v 0.957800 2.070000 0.078400
v 1.066800 1.930000 1.057600
v -0.066800 1.930000 1.057600
v -0.066800 1.930000 -0.057600
v 1.066800 1.930000 -0.057600
v 0.957800 1.930000 0.921600
v 0.042200 1.930000 0.921600
v 0.042200 1.930000 0.078400
v 0.957800 1.930000 0.078400
v 0.901706 1.000000 0.113494
v 0.901706 1.000000 0.893490
v 0.116554 1.000000 0.893489
v 0.116554 1.000000 0.113493
v 1.000000 1.789540 0.000000
v 1.000000 1.789540 1.000000
v -0.000000 1.789540 1.000000
v 0.000000 1.789540 0.000000
v 0.220506 0.000000 0.788820
v 0.220506 0.000000 0.888820
v 0.120506 0.000000 0.888820
v 0.120506 0.000000 0.788820
v 0.220506 1.000000 0.788820
v 0.220506 1.000000 0.888820
v 0.120506 1.000000 0.888820
v 0.120506 1.000000 0.788820
v 0.220506 0.000000 0.118498
v 0.220506 0.000000 0.218498
v 0.120506 0.000000 0.218498
v 0.120506 0.000000 0.118498
v 0.220506 1.000000 0.118498
v 0.220506 1.000000 0.218498
v 0.120506 1.000000 0.218498
v 0.120506 1.000000 0.118498
v 0.898486 0.000000 0.116939
v 0.898486 0.000000 0.216940
v 0.798486 0.000000 0.216940
v 0.798486 0.000000 0.116939
v 0.898486 1.000000 0.116939
v 0.898486 1.000000 0.216940
v 0.798486 1.000000 0.216940
v 0.798486 1.000000 0.116939
v 0.896435 0.000000 0.789705
v 0.896435 0.000000 0.889705
v 0.796435 0.000000 0.889705
v 0.796435 0.000000 0.789705
v 0.896435 1.000000 0.789705
v 0.896435 1.000000 0.889705
v 0.796435 1.000000 0.889705
v 0.796435 1.000000 0.789705
vt 0.9330 0.9119
vt 0.8777 0.9294
vt 0.8601 0.9119
vt 0.0754 0.9131
vt 0.1357 0.8955
vt 0.1533 0.9131
vt 0.8777 0.8926
vt 0.9330 0.9102
vt 0.8601 0.9102
vt 0.1357 0.8938
vt 0.0754 0.8762
vt 0.1533 0.8762
vt 0.0737 0.9131
vt 0.0184 0.9307
vt 0.0008 0.9131
vt 0.8222 0.6338
vt 0.8825 0.6162
vt 0.9001 0.6338
vt 0.8031 0.9119
vt 0.8584 0.9294
vt 0.7855 0.9294
vt 0.8779 0.8074
vt 0.8176 0.7898
vt 0.8955 0.7898
vt 0.0737 0.9114
vt 0.0008 0.8762
vt 0.0737 0.8762
vt 0.7933 0.0008
vt 0.8712 0.0360
vt 0.7933 0.0360
vt 0.8348 0.7529
vt 0.9076 0.7881
vt 0.8348 0.7881
vt 0.8331 0.7881
vt 0.7552 0.7529
vt 0.8331 0.7529
vt 0.8101 0.5408
vt 0.7724 0.5056
vt 0.8101 0.5056
vt 0.7701 0.3665
vt 0.8128 0.4017
vt 0.7701 0.4017
vt 0.7724 0.4048
vt 0.8101 0.4400
vt 0.7724 0.4400
vt 0.2412 0.6445
vt 0.1985 0.6093
vt 0.2412 0.6093
vt 0.9457 0.0570
vt 0.8905 0.0394
vt 0.9281 0.0394
vt 0.7933 0.0746
vt 0.8536 0.0922
vt 0.8109 0.0922
vt 0.9457 0.0587
vt 0.8905 0.0763
vt 0.8729 0.0587
vt 0.0754 0.9323
vt 0.1357 0.9148
vt 0.1533 0.9323
vt 0.9457 0.0184
vt 0.8905 0.0008
vt 0.9281 0.0008
vt 0.8013 0.7170
vt 0.8616 0.7346
vt 0.8189 0.7346
vt 0.9457 0.0201
vt 0.8905 0.0377
vt 0.8729 0.0201
vt 0.7805 0.9102
vt 0.8408 0.8926
vt 0.8584 0.9102
vt 0.8222 0.6707
vt 0.8951 0.6355
vt 0.8951 0.6707
vt 0.1985 0.4560
vt 0.2337 0.5339
vt 0.1985 0.5339
vt 0.8742 0.6802
vt 0.8013 0.7153
vt 0.8013 0.6802
vt 0.7933 0.0729
vt 0.8712 0.0377
vt 0.8712 0.0729
vt 0.7724 0.5039
vt 0.8101 0.4688
vt 0.8101 0.5039
vt 0.2412 0.5356
vt 0.1985 0.5708
vt 0.1985 0.5356
vt 0.8101 0.5425
vt 0.7724 0.5777
vt 0.7724 0.5425
vt 0.1985 0.6077
vt 0.2412 0.5725
vt 0.2412 0.6077
vt 0.7453 0.6047
vt 0.5068 0.5728
vt 0.7707 0.5728
vt 0.2857 0.9196
vt 0.5155 0.9450
vt 0.2538 0.9450
vt 0.5321 0.4720
vt 0.7707 0.5039
vt 0.5068 0.5039
vt 0.7469 0.9180
vt 0.5172 0.8926
vt 0.7788 0.8926
vt 0.7453 0.5711
vt 0.5068 0.5392
vt 0.7707 0.5392
vt 0.6988 0.8557
vt 0.9286 0.8811
vt 0.6669 0.8811
vt 0.5321 0.5056
vt 0.7707 0.5375
vt 0.5068 0.5375
vt 0.4836 0.9180
vt 0.2538 0.8926
vt 0.5155 0.8926
vt 0.7707 0.1436
vt 0.5068 0.1084
vt 0.7707 0.1084
vt 0.5068 0.3665
vt 0.7684 0.4017
vt 0.5068 0.4017
vt 0.5068 0.1453
vt 0.7707 0.1805
vt 0.5068 0.1805
vt 0.7684 0.2911
vt 0.5068 0.2559
vt 0.7684 0.2559
vt 0.2140 0.8008
vt 0.0008 0.7656
vt 0.2140 0.7656
vt 0.0008 0.8393
vt 0.1987 0.8745
vt 0.0008 0.8745
vt 0.0008 0.8025
vt 0.2140 0.8376
vt 0.0008 0.8376
vt 0.8788 0.8540
vt 0.6809 0.8188
vt 0.8788 0.8188
vt 0.7707 0.4703
vt 0.5321 0.4384
vt 0.7453 0.4384
vt 0.7788 0.9738
vt 0.5491 0.9992
vt 0.5172 0.9738
vt 0.7996 0.7170
vt 0.5611 0.7489
vt 0.5357 0.7170
vt 0.5172 0.9450
vt 0.7469 0.9196
vt 0.7788 0.9450
vt 0.7707 0.4367
vt 0.5321 0.4048
vt 0.7453 0.4048
vt 0.5155 0.9738
vt 0.2857 0.9992
vt 0.2538 0.9738
vt 0.7996 0.6802
vt 0.5611 0.7121
vt 0.5357 0.6802
vt 0.2538 0.9721
vt 0.4836 0.9467
vt 0.5155 0.9721
vt 0.5068 0.2173
vt 0.7707 0.1822
vt 0.7707 0.2173
vt 0.7684 0.2928
vt 0.5068 0.3279
vt 0.5068 0.2928
vt 0.7707 0.2190
vt 0.5068 0.2542
vt 0.5068 0.2190
vt 0.5068 0.3648
vt 0.7684 0.3296
vt 0.7684 0.3648
vt 0.0008 0.7639
vt 0.2140 0.7287
vt 0.2140 0.7639
vt 0.4517 0.8557
vt 0.2538 0.8909
vt 0.2538 0.8557
vt 0.7535 0.7529
vt 0.5403 0.7881
vt 0.5403 0.7529
vt 0.4674 0.8909
vt 0.6652 0.8557
vt 0.6652 0.8909
vt 0.5068 0.0709
vt 0.7642 0.0367
vt 0.7916 0.0709
vt 0.8205 0.6511
vt 0.5745 0.6785
vt 0.5403 0.6511
vt 0.7916 0.0008
vt 0.5341 0.0350
vt 0.5068 0.0008
vt 0.2538 0.8172
vt 0.4998 0.7898
vt 0.5340 0.8172
vt 0.5068 0.1067
vt 0.7642 0.0726
vt 0.7916 0.1067
vt 0.8205 0.6064
vt 0.5745 0.6338
vt 0.5403 0.6064
vt 0.5386 0.7539
vt 0.2812 0.7881
vt 0.2538 0.7539
vt 0.5357 0.8172
vt 0.7817 0.7898
vt 0.8159 0.8172
vt 0.2538 0.6416
vt 0.5386 0.6064
vt 0.5386 0.6416
vt 0.5340 0.6802
vt 0.2538 0.7153
vt 0.2538 0.6802
vt 0.5386 0.6433
vt 0.2538 0.6785
vt 0.2538 0.6433
vt 0.2538 0.7522
vt 0.5340 0.7170
vt 0.5340 0.7522
vt 0.0008 0.6902
vt 0.2309 0.6550
vt 0.2309 0.6902
vt 0.4657 0.8188
vt 0.2538 0.8540
vt 0.2538 0.8188
vt 0.2309 0.6919
vt 0.0008 0.7270
vt 0.0008 0.6919
vt 0.4674 0.8540
vt 0.6792 0.8188
vt 0.6792 0.8540
vt 0.1968 0.6533
vt 0.0008 0.4560
vt 0.1968 0.4560
vt 0.0008 0.2521
vt 0.2521 0.0008
vt 0.2521 0.2521
vt 0.4766 0.4048
vt 0.2538 0.6047
vt 0.2806 0.4048
vt 0.5051 0.4031
vt 0.2831 0.2030
vt 0.4804 0.2030
vt 0.0008 0.2538
vt 0.2236 0.4543
vt 0.0276 0.4543
vt 0.5051 0.0008
vt 0.2831 0.2013
vt 0.2538 0.0008
vt 0.8759 0.7053
vt 0.9010 0.6802
vt 0.9010 0.7053
vt 0.7992 0.4668
vt 0.8243 0.4417
vt 0.8243 0.4668
vt 0.8780 0.3597
vt 0.8528 0.1084
vt 0.8780 0.1084
vt 0.9048 0.6127
vt 0.8796 0.3614
vt 0.9048 0.3614
vt 0.8511 0.3597
vt 0.8260 0.1084
vt 0.8511 0.1084
vt 0.9333 0.6143
vt 0.9584 0.8656
vt 0.9333 0.8656
vt 0.1550 0.9013
vt 0.1801 0.8762
vt 0.1801 0.9013
vt 0.7975 0.4668
vt 0.7724 0.4417
vt 0.7975 0.4417
vt 0.8780 0.6127
vt 0.8528 0.3614
vt 0.8780 0.3614
vt 0.9316 0.6127
vt 0.9065 0.3614
vt 0.9316 0.3614
vt 0.7975 0.3597
vt 0.7724 0.1084
vt 0.7975 0.1084
vt 0.9333 0.3614
vt 0.9584 0.6127
vt 0.9333 0.6127
vt 0.8980 0.1031
vt 0.8729 0.0780
vt 0.8980 0.0780
vt 0.7975 0.6047
vt 0.7724 0.5796
vt 0.7975 0.5796
vt 0.9048 0.3597
vt 0.8796 0.1084
vt 0.9048 0.1084
vt 0.2408 0.9800
vt 0.2157 0.7287
vt 0.2408 0.7287
vt 0.9852 0.6127
vt 0.9601 0.3614
vt 0.9852 0.3614
vt 0.9601 0.1084
vt 0.9852 0.3597
vt 0.9601 0.3597
vt 0.7992 0.6047
vt 0.8243 0.5796
vt 0.8243 0.6047
vt 0.2069 0.8762
vt 0.1818 0.9013
vt 0.1818 0.8762
vt 0.8243 0.3597
vt 0.7992 0.1084
vt 0.8243 0.1084
vt 0.9316 0.3597
vt 0.9065 0.1084
vt 0.9316 0.1084
vt 0.9584 0.3597
vt 0.9333 0.1084
vt 0.9584 0.1084
vt 0.8260 0.3614
vt 0.8511 0.6127
vt 0.8260 0.6127
vt 0.9154 0.9294
vt 0.0930 0.8955
vt 0.9154 0.8926
vt 0.0930 0.8938
vt 0.0561 0.9307
vt 0.8398 0.6162
vt 0.8408 0.9119
vt 0.8352 0.8074
vt 0.0008 0.9114
vt 0.8712 0.0008
vt 0.9076 0.7529
vt 0.7552 0.7881
vt 0.7724 0.5408
vt 0.8128 0.3665
vt 0.8101 0.4048
vt 0.1985 0.6445
vt 0.8729 0.0570
vt 0.8712 0.0746
vt 0.9281 0.0763
vt 0.0930 0.9148
vt 0.8729 0.0184
vt 0.8792 0.7170
vt 0.9281 0.0377
vt 0.7981 0.8926
vt 0.8222 0.6355
vt 0.2337 0.4560
vt 0.8742 0.7153
vt 0.7933 0.0377
vt 0.7724 0.4688
vt 0.2412 0.5708
vt 0.8101 0.5777
vt 0.1985 0.5725
vt 0.5321 0.6047
vt 0.4836 0.9196
vt 0.7453 0.4720
vt 0.5491 0.9180
vt 0.5321 0.5711
vt 0.8967 0.8557
vt 0.7453 0.5056
vt 0.2857 0.9180
vt 0.5068 0.1436
vt 0.7684 0.3665
vt 0.7707 0.1453
vt 0.5068 0.2911
vt 0.0008 0.8008
vt 0.1987 0.8393
vt 0.2140 0.8025
vt 0.6809 0.8540
vt 0.5068 0.4703
vt 0.7469 0.9992
vt 0.7743 0.7489
vt 0.5491 0.9196
vt 0.5068 0.4367
vt 0.4836 0.9992
vt 0.7743 0.7121
vt 0.2857 0.9467
vt 0.5068 0.1822
vt 0.7684 0.3279
vt 0.7707 0.2542
vt 0.5068 0.3296
vt 0.0008 0.7287
vt 0.4517 0.8909
vt 0.7535 0.7881
vt 0.4674 0.8557
vt 0.5341 0.0367
vt 0.7864 0.6785
vt 0.7642 0.0350
vt 0.2880 0.7898
vt 0.5341 0.0726
vt 0.7864 0.6338
vt 0.5113 0.7881
vt 0.5699 0.7898
vt 0.2538 0.6064
vt 0.5340 0.7153
vt 0.5386 0.6785
vt 0.2538 0.7170
vt 0.0008 0.6550
vt 0.4657 0.8540
vt 0.2309 0.7270
vt 0.4674 0.8188
vt 0.0008 0.6533
vt 0.0008 0.0008
vt 0.5051 0.6047
vt 0.2538 0.4031
vt 0.2521 0.2538
vt 0.4804 0.2013
vt 0.8759 0.6802
vt 0.7992 0.4417
vt 0.8528 0.3597
vt 0.8796 0.6127
vt 0.8260 0.3597
vt 0.9584 0.6143
vt 0.1550 0.8762
vt 0.7724 0.4668
vt 0.8528 0.6127
vt 0.9065 0.6127
vt 0.7724 0.3597
vt 0.9584 0.3614
vt 0.8729 0.1031
vt 0.7724 0.6047
vt 0.8796 0.3597
vt 0.2157 0.9800
vt 0.9601 0.6127
vt 0.9852 0.1084
vt 0.7992 0.5796
vt 0.2069 0.9013
vt 0.7992 0.3597
vt 0.9065 0.3597
vt 0.9333 0.3597
vt 0.8511 0.3614
vn 0.0000 1.0000 -0.0000
vn 0.0000 0.0000 -1.0000
vn 1.0000 0.0000 0.0000
vn 0.0000 0.0000 1.0000
vn -1.0000 0.0000 0.0000
vn 0.0000 -1.0000 0.0000
vn 0.9923 -0.1235 0.0000
vn -0.0000 -0.1337 0.9910
vn -0.9893 -0.1460 -0.0000
vn 0.0000 -0.1423 -0.9898
usemtl Material
s off
f 1/1/1 6/2/1 2/3/1
f 2/4/1 7/5/1 3/6/1
f 7/7/1 4/8/1 3/9/1
f 8/10/1 1/11/1 4/12/1
f 9/13/1 14/14/1 10/15/1
f 10/16/1 15/17/1 11/18/1
f 15/19/1 12/20/1 11/21/1
f 16/22/1 9/23/1 12/24/1
f 9/25/2 2/26/2 1/27/2
f 10/28/3 3/29/3 2/30/3
f 11/31/4 4/32/4 3/33/4
f 12/34/5 1/35/5 4/36/5
f 13/37/2 6/38/2 5/39/2
f 14/40/3 7/41/3 6/42/3
f 15/43/4 8/44/4 7/45/4
f 16/46/5 5/47/5 8/48/5
f 30/49/6 32/50/6 29/51/6
f 26/52/6 22/53/6 32/54/6
f 31/55/6 22/56/6 21/57/6
f 30/58/6 19/59/6 31/60/6
f 23/61/6 18/62/6 17/63/6
f 27/64/6 28/65/6 18/66/6
f 25/67/6 28/68/6 24/69/6
f 23/70/6 20/71/6 25/72/6
f 26/73/4 23/74/4 30/75/4
f 21/76/5 27/77/5 26/78/5
f 31/79/2 24/80/2 21/81/2
f 30/82/3 25/83/3 31/84/3
f 32/85/4 17/86/4 29/87/4
f 22/88/5 18/89/5 32/90/5
f 19/91/2 28/92/2 22/93/2
f 29/94/3 20/95/3 19/96/3
f 37/97/1 34/98/1 33/99/1
f 38/100/1 35/101/1 34/102/1
f 39/103/1 36/104/1 35/105/1
f 40/106/1 33/107/1 36/108/1
f 45/109/1 42/110/1 41/111/1
f 46/112/1 43/113/1 42/114/1
f 47/115/1 44/116/1 43/117/1
f 48/118/1 41/119/1 44/120/1
f 41/121/2 34/122/2 33/123/2
f 42/124/3 35/125/3 34/126/3
f 43/127/4 36/128/4 35/129/4
f 44/130/5 33/131/5 36/132/5
f 45/133/2 38/134/2 37/135/2
f 46/136/3 39/137/3 38/138/3
f 47/139/4 40/140/4 39/141/4
f 48/142/5 37/143/5 40/144/5
f 62/145/6 64/146/6 61/147/6
f 53/148/6 64/149/6 58/150/6
f 63/151/6 54/152/6 53/153/6
f 62/154/6 51/155/6 63/156/6
f 55/157/6 50/158/6 49/159/6
f 56/160/6 50/161/6 59/162/6
f 57/163/6 60/164/6 56/165/6
f 55/166/6 52/167/6 57/168/6
f 58/169/4 55/170/4 62/171/4
f 53/172/5 59/173/5 58/174/5
f 63/175/2 56/176/2 53/177/2
f 62/178/3 57/179/3 63/180/3
f 64/181/4 49/182/4 61/183/4
f 54/184/5 50/185/5 64/186/5
f 51/187/2 60/188/2 54/189/2
f 61/190/3 52/191/3 51/192/3
f 66/193/6 69/194/6 65/195/6
f 67/196/6 70/197/6 66/198/6
f 68/199/6 71/200/6 67/201/6
f 65/202/6 72/203/6 68/204/6
f 74/205/6 77/206/6 73/207/6
f 75/208/6 78/209/6 74/210/6
f 76/211/6 79/212/6 75/213/6
f 73/214/6 80/215/6 76/216/6
f 66/217/4 73/218/4 65/219/4
f 67/220/5 74/221/5 66/222/5
f 68/223/2 75/224/2 67/225/2
f 65/226/3 76/227/3 68/228/3
f 70/229/4 77/230/4 69/231/4
f 71/232/5 78/233/5 70/234/5
f 72/235/2 79/236/2 71/237/2
f 69/238/3 80/239/3 72/240/3
f 81/241/6 83/242/6 84/243/6
f 88/244/1 86/245/1 85/246/1
f 81/247/7 86/248/7 82/249/7
f 86/250/8 83/251/8 82/252/8
f 87/253/9 84/254/9 83/255/9
f 85/256/10 84/257/10 88/258/10
f 90/259/6 92/260/6 89/261/6
f 96/262/1 94/263/1 93/264/1
f 93/265/3 90/266/3 89/267/3
f 94/268/4 91/269/4 90/270/4
f 95/271/5 92/272/5 91/273/5
f 89/274/2 96/275/2 93/276/2
f 98/277/6 100/278/6 97/279/6
f 104/280/1 102/281/1 101/282/1
f 101/283/3 98/284/3 97/285/3
f 102/286/4 99/287/4 98/288/4
f 103/289/5 100/290/5 99/291/5
f 97/292/2 104/293/2 101/294/2
f 106/295/6 108/296/6 105/297/6
f 112/298/1 110/299/1 109/300/1
f 109/301/3 106/302/3 105/303/3
f 110/304/4 107/305/4 106/306/4
f 111/307/5 108/308/5 107/309/5
f 105/310/2 112/311/2 109/312/2
f 114/313/6 116/314/6 113/315/6
f 120/316/1 118/317/1 117/318/1
f 117/319/3 114/320/3 113/321/3
f 118/322/4 115/323/4 114/324/4
f 119/325/5 116/326/5 115/327/5
f 113/328/2 120/329/2 117/330/2
f 1/1/1 5/331/1 6/2/1
f 2/4/1 6/332/1 7/5/1
f 7/7/1 8/333/1 4/8/1
f 8/10/1 5/334/1 1/11/1
f 9/13/1 13/335/1 14/14/1
f 10/16/1 14/336/1 15/17/1
f 15/19/1 16/337/1 12/20/1
f 16/22/1 13/338/1 9/23/1
f 9/25/2 10/339/2 2/26/2
f 10/28/3 11/340/3 3/29/3
f 11/31/4 12/341/4 4/32/4
f 12/34/5 9/342/5 1/35/5
f 13/37/2 14/343/2 6/38/2
f 14/40/3 15/344/3 7/41/3
f 15/43/4 16/345/4 8/44/4
f 16/46/5 13/346/5 5/47/5
f 30/49/6 26/347/6 32/50/6
f 26/52/6 21/348/6 22/53/6
f 31/55/6 19/349/6 22/56/6
f 30/58/6 29/350/6 19/59/6
f 23/61/6 27/351/6 18/62/6
f 27/64/6 24/352/6 28/65/6
f 25/67/6 20/353/6 28/68/6
f 23/70/6 17/354/6 20/71/6
f 26/73/4 27/355/4 23/74/4
f 21/76/5 24/356/5 27/77/5
f 31/79/2 25/357/2 24/80/2
f 30/82/3 23/358/3 25/83/3
f 32/85/4 18/359/4 17/86/4
f 22/88/5 28/360/5 18/89/5
f 19/91/2 20/361/2 28/92/2
f 29/94/3 17/362/3 20/95/3
f 37/97/1 38/363/1 34/98/1
f 38/100/1 39/364/1 35/101/1
f 39/103/1 40/365/1 36/104/1
f 40/106/1 37/366/1 33/107/1
f 45/109/1 46/367/1 42/110/1
f 46/112/1 47/368/1 43/113/1
f 47/115/1 48/369/1 44/116/1
f 48/118/1 45/370/1 41/119/1
f 41/121/2 42/371/2 34/122/2
f 42/124/3 43/372/3 35/125/3
f 43/127/4 44/373/4 36/128/4
f 44/130/5 41/374/5 33/131/5
f 45/133/2 46/375/2 38/134/2
f 46/136/3 47/376/3 39/137/3
f 47/139/4 48/377/4 40/140/4
f 48/142/5 45/378/5 37/143/5
f 62/145/6 58/379/6 64/146/6
f 53/148/6 54/380/6 64/149/6
f 63/151/6 51/381/6 54/152/6
f 62/154/6 61/382/6 51/155/6
f 55/157/6 59/383/6 50/158/6
f 56/160/6 60/384/6 50/161/6
f 57/163/6 52/385/6 60/164/6
f 55/166/6 49/386/6 52/167/6
f 58/169/4 59/387/4 55/170/4
f 53/172/5 56/388/5 59/173/5
f 63/175/2 57/389/2 56/176/2
f 62/178/3 55/390/3 57/179/3
f 64/181/4 50/391/4 49/182/4
f 54/184/5 60/392/5 50/185/5
f 51/187/2 52/393/2 60/188/2
f 61/190/3 49/394/3 52/191/3
f 66/193/6 70/395/6 69/194/6
f 67/196/6 71/396/6 70/197/6
f 68/199/6 72/397/6 71/200/6
f 65/202/6 69/398/6 72/203/6
f 74/205/6 78/399/6 77/206/6
f 75/208/6 79/400/6 78/209/6
f 76/211/6 80/401/6 79/212/6
f 73/214/6 77/402/6 80/215/6
f 66/217/4 74/403/4 73/218/4
f 67/220/5 75/404/5 74/221/5
f 68/223/2 76/405/2 75/224/2
f 65/226/3 73/406/3 76/227/3
f 70/229/4 78/407/4 77/230/4
f 71/232/5 79/408/5 78/233/5
f 72/235/2 80/409/2 79/236/2
f 69/238/3 77/410/3 80/239/3
f 81/241/6 82/411/6 83/242/6
f 88/244/1 87/412/1 86/245/1
f 81/247/7 85/413/7 86/248/7
f 86/250/8 87/414/8 83/251/8
f 87/253/9 88/415/9 84/254/9
f 85/256/10 81/416/10 84/257/10
f 90/259/6 91/417/6 92/260/6
f 96/262/1 95/418/1 94/263/1
f 93/265/3 94/419/3 90/266/3
f 94/268/4 95/420/4 91/269/4
f 95/271/5 96/421/5 92/272/5
f 89/274/2 92/422/2 96/275/2
f 98/277/6 99/423/6 100/278/6
f 104/280/1 103/424/1 102/281/1
f 101/283/3 102/425/3 98/284/3
f 102/286/4 103/426/4 99/287/4
f 103/289/5 104/427/5 100/290/5
f 97/292/2 100/428/2 104/293/2
f 106/295/6 107/429/6 108/296/6
f 112/298/1 111/430/1 110/299/1
f 109/301/3 110/431/3 106/302/3
f 110/304/4 111/432/4 107/305/4
f 111/307/5 112/433/5 108/308/5
f 105/310/2 108/434/2 112/311/2
f 114/313/6 115/435/6 116/314/6
f 120/316/1 119/436/1 118/317/1
f 117/319/3 118/437/3 114/320/3
f 118/322/4 119/438/4 115/323/4
f 119/325/5 120/439/5 116/326/5
f 113/328/2 116/440/2 120/329/2
