# Blender v2.79 (sub 0) OBJ File: 'lock.blend'
# www.blender.org
mtllib lock.mtl
o Cube
v 0.550000 0.372192 0.340000
v 0.550000 0.372192 0.660000
v 0.450000 0.372192 0.660000
v 0.450000 0.372192 0.340000
v 0.550000 0.632192 0.340000
v 0.550000 0.632192 0.660000
v 0.450000 0.632192 0.660000
v 0.450000 0.632192 0.340000
v 0.468846 0.604239 0.618030
v 0.468846 0.784239 0.567321
v 0.468846 0.604239 0.378030
v 0.468846 0.784239 0.424041
v 0.528846 0.604239 0.618030
v 0.528846 0.784239 0.567321
v 0.528846 0.604239 0.378030
v 0.528846 0.784239 0.424041
v 0.468846 0.694436 0.618030
v 0.468846 0.694436 0.378030
v 0.528846 0.694436 0.378030
v 0.528846 0.694436 0.618030
v 0.468846 0.738389 0.604565
v 0.468846 0.738389 0.389926
v 0.528846 0.738389 0.389926
v 0.528846 0.738389 0.604565
v 0.468846 0.604239 0.497941
v 0.468846 0.804127 0.495627
v 0.528846 0.604239 0.497941
v 0.528846 0.804127 0.495627
v 0.468846 0.604239 0.557247
v 0.528846 0.801152 0.531033
v 0.468846 0.801152 0.531033
v 0.528846 0.604239 0.557247
v 0.468846 0.800382 0.459016
v 0.528846 0.604239 0.436616
v 0.468846 0.604239 0.436616
v 0.528846 0.800382 0.459016
v 0.528846 0.626537 0.497963
v 0.528846 0.626537 0.497941
v 0.468846 0.626537 0.497941
v 0.468846 0.626537 0.497963
v 0.528846 0.626537 0.451832
v 0.468846 0.626537 0.451832
v 0.528846 0.776901 0.496223
v 0.468846 0.776901 0.496223
v 0.528846 0.626537 0.436616
v 0.468846 0.626537 0.436616
v 0.528846 0.765257 0.449557
v 0.528846 0.761941 0.442372
v 0.468846 0.761941 0.442372
v 0.468846 0.765257 0.449557
v 0.528846 0.738389 0.424848
v 0.468846 0.738389 0.424848
v 0.468846 0.727451 0.416710
v 0.528846 0.727451 0.416709
v 0.528846 0.626537 0.407761
v 0.468846 0.626537 0.407761
v 0.528846 0.774084 0.468682
v 0.468846 0.774084 0.468682
v 0.528846 0.694387 0.407761
v 0.468846 0.694387 0.407761
v 0.528846 0.626537 0.542576
v 0.468846 0.626537 0.542576
v 0.528846 0.776898 0.496265
v 0.468846 0.776898 0.496265
v 0.468846 0.774664 0.522857
v 0.528846 0.774664 0.522857
v 0.528846 0.626537 0.588300
v 0.468846 0.626537 0.588300
v 0.468846 0.694436 0.407774
v 0.528846 0.694436 0.407774
v 0.468846 0.765823 0.541825
v 0.528846 0.761941 0.550154
v 0.528846 0.765823 0.541825
v 0.468846 0.761941 0.550154
v 0.528846 0.694387 0.588300
v 0.468846 0.694387 0.588300
v 0.528846 0.626537 0.557247
v 0.468846 0.626537 0.557247
v 0.468846 0.738389 0.569285
v 0.528846 0.727451 0.578171
v 0.528846 0.738389 0.569285
v 0.468846 0.727451 0.578171
v 0.528846 0.694436 0.588285
v 0.468846 0.694436 0.588285
vt 0.939011 0.142868
vt 0.474787 0.005205
vt 0.938609 0.005205
vt 0.469027 0.772986
vt 0.000555 0.916446
vt 0.000555 0.772986
vt 0.465121 0.377555
vt 0.000555 0.000555
vt 0.465121 0.000555
vt 0.762073 0.527533
vt 0.621713 0.149031
vt 0.762073 0.149031
vt 0.000555 0.384817
vt 0.467477 0.763319
vt 0.002105 0.763319
vt 0.473237 0.149031
vt 0.615953 0.527533
vt 0.473237 0.527533
vt 0.790128 0.755337
vt 0.878548 0.839556
vt 0.790128 0.839556
vt 0.858609 0.503709
vt 0.770219 0.416628
vt 0.858639 0.416658
vt 0.859763 0.326980
vt 0.770189 0.238560
vt 0.859763 0.238560
vt 0.879658 0.814336
vt 0.968078 0.755337
vt 0.968078 0.814336
vt 0.789019 0.800813
vt 0.700599 0.667893
vt 0.789019 0.667893
vt 0.610362 0.666012
vt 0.566595 0.666093
vt 0.610342 0.566128
vt 0.699489 0.667893
vt 0.566568 0.756313
vt 0.566568 0.667893
vt 0.517004 0.822974
vt 0.473237 0.823046
vt 0.517004 0.723091
vt 0.939349 0.914695
vt 0.850930 0.846952
vt 0.939349 0.846952
vt 0.859749 0.328090
vt 0.948169 0.395192
vt 0.859749 0.395192
vt 0.881336 0.402409
vt 0.946979 0.402409
vt 0.947012 0.435217
vt 0.798127 0.993250
vt 0.775704 0.993250
vt 0.798127 0.960390
vt 0.879659 0.696351
vt 0.968078 0.642115
vt 0.968079 0.696349
vt 0.860562 0.237451
vt 0.770189 0.149031
vt 0.860562 0.149031
vt 0.796758 0.846952
vt 0.799382 0.893226
vt 0.787203 0.887306
vt 0.746646 0.533293
vt 0.702879 0.566119
vt 0.657165 0.533293
vt 0.319878 0.917555
vt 0.315858 0.959468
vt 0.264975 0.959468
vt 0.423446 0.999445
vt 0.357803 0.999445
vt 0.423479 0.966636
vt 0.850930 0.968165
vt 0.939349 0.915804
vt 0.939349 0.968165
vt 0.858639 0.328120
vt 0.770189 0.415488
vt 0.770219 0.328090
vt 0.906614 0.589037
vt 0.859749 0.589041
vt 0.865326 0.578800
vt 0.878548 0.667893
vt 0.790128 0.754228
vt 0.790128 0.667893
vt 0.879658 0.754228
vt 0.968078 0.697461
vt 0.968078 0.754228
vt 0.565459 0.566818
vt 0.512374 0.580049
vt 0.485997 0.533293
vt 0.848914 0.961438
vt 0.806603 0.956189
vt 0.806603 0.905787
vt 0.473237 0.959160
vt 0.541187 0.959160
vt 0.473237 0.992020
vt 0.747756 0.533293
vt 0.836176 0.633282
vt 0.747756 0.633282
vt 0.000555 0.967722
vt 0.087746 0.917585
vt 0.087728 0.967752
vt 0.666557 0.845842
vt 0.566568 0.757422
vt 0.666557 0.757422
vt 0.948169 0.482088
vt 0.859749 0.503709
vt 0.859749 0.482088
vt 0.700599 0.813583
vt 0.789019 0.801923
vt 0.789019 0.813583
vt 0.798127 0.916759
vt 0.798127 0.959281
vt 0.709707 0.916759
vt 0.882439 0.149031
vt 0.927155 0.237451
vt 0.882439 0.237451
vt 0.986716 0.088975
vt 0.945919 0.000555
vt 0.986716 0.000555
vt 0.197778 0.940483
vt 0.231590 0.917555
vt 0.251025 0.966175
vt 0.176017 0.968761
vt 0.088855 0.968761
vt 0.088855 0.919076
vt 0.949315 0.238591
vt 0.860873 0.304305
vt 0.860895 0.238560
vt 0.946408 0.524659
vt 0.970181 0.558290
vt 0.919647 0.577601
vt 0.624869 0.935943
vt 0.618968 0.893816
vt 0.667896 0.940428
vt 0.560704 0.826380
vt 0.473250 0.893588
vt 0.473250 0.826380
vt 0.970364 0.216996
vt 0.928264 0.216359
vt 0.975987 0.166424
vt 0.971299 0.935372
vt 0.940459 0.846952
vt 0.971299 0.846952
vt 0.569770 0.981439
vt 0.566568 0.941538
vt 0.610464 0.981439
vt 0.355585 0.960184
vt 0.354851 0.917555
vt 0.405703 0.965527
vt 0.561657 0.914789
vt 0.473237 0.958050
vt 0.473237 0.914789
vt 0.987885 0.328103
vt 0.989400 0.328090
vt 0.987885 0.414906
vt 0.647824 0.851579
vt 0.653151 0.892706
vt 0.603349 0.846952
vt 0.936670 0.589353
vt 0.980291 0.629259
vt 0.927931 0.629259
vt 0.475190 0.142868
vt 0.469027 0.916446
vt 0.000555 0.377555
vt 0.621713 0.527533
vt 0.465926 0.384817
vt 0.615953 0.149031
vt 0.878548 0.755337
vt 0.770189 0.503678
vt 0.770189 0.326980
vt 0.879658 0.755337
vt 0.700599 0.800813
vt 0.566568 0.533311
vt 0.656049 0.533293
vt 0.656055 0.566118
vt 0.610585 0.666783
vt 0.699489 0.756312
vt 0.473237 0.690266
vt 0.559481 0.690266
vt 0.559481 0.723091
vt 0.517199 0.823745
vt 0.850930 0.914695
vt 0.948169 0.328090
vt 0.859749 0.435217
vt 0.859749 0.402409
vt 0.947552 0.402413
vt 0.707755 0.960390
vt 0.707755 0.993250
vt 0.879658 0.642117
vt 0.770189 0.237451
vt 0.742488 0.887306
vt 0.709707 0.846952
vt 0.849820 0.872744
vt 0.746646 0.666076
vt 0.702861 0.666768
vt 0.702879 0.666004
vt 0.657165 0.566119
vt 0.252135 0.917555
vt 0.335107 0.967266
vt 0.336216 0.966636
vt 0.424019 0.999445
vt 0.336216 0.999445
vt 0.850930 0.915804
vt 0.858609 0.415518
vt 0.865326 0.535539
vt 0.906614 0.504818
vt 0.879464 0.638890
vt 0.878548 0.754228
vt 0.879658 0.697461
vt 0.513844 0.689157
vt 0.473237 0.672776
vt 0.473547 0.672077
vt 0.473237 0.563537
vt 0.848914 0.894336
vt 0.799237 0.974882
vt 0.563610 0.992020
vt 0.563610 0.959160
vt 0.836176 0.533293
vt 0.087741 0.969273
vt 0.000568 0.969243
vt 0.000572 0.917555
vt 0.566568 0.845842
vt 0.859749 0.436327
vt 0.948169 0.436327
vt 0.948169 0.503709
vt 0.789019 0.844625
vt 0.700599 0.844625
vt 0.700599 0.801923
vt 0.709707 0.894336
vt 0.798127 0.894336
vt 0.709707 0.959281
vt 0.861672 0.237451
vt 0.861672 0.149031
vt 0.927155 0.149031
vt 0.945919 0.088975
vt 0.212375 0.976999
vt 0.177152 0.917555
vt 0.088880 0.917555
vt 0.176042 0.917555
vt 0.176017 0.919076
vt 0.949293 0.304335
vt 0.907724 0.539381
vt 0.908395 0.539185
vt 0.970181 0.504818
vt 0.702733 0.902547
vt 0.614105 0.940428
vt 0.566568 0.915651
vt 0.473237 0.824854
vt 0.560691 0.824854
vt 0.560704 0.893588
vt 0.935751 0.149031
vt 0.975987 0.236988
vt 0.984841 0.846952
vt 0.984841 0.935372
vt 0.940459 0.935372
vt 0.620665 0.941538
vt 0.639753 0.991486
vt 0.569076 0.981557
vt 0.421575 0.924669
vt 0.336216 0.965527
vt 0.473237 0.894697
vt 0.561657 0.894697
vt 0.561657 0.958050
vt 0.949278 0.414906
vt 0.949278 0.328103
vt 0.989400 0.414893
vt 0.566568 0.883697
vt 0.660550 0.846952
vt 0.708598 0.872544
vt 0.907724 0.578710
vt 0.975996 0.589353
vn 0.0000 -1.0000 0.0000
vn 0.0000 1.0000 0.0000
vn 1.0000 0.0000 0.0000
vn 0.0000 -0.0000 1.0000
vn -1.0000 0.0000 -0.0000
vn 0.0000 0.0000 -1.0000
vn 0.0000 0.5969 -0.8023
vn 0.0000 0.6305 0.7762
vn 0.0000 0.9064 0.4224
vn 0.0000 0.2929 0.9561
vn 0.0000 0.2612 -0.9653
vn 0.0000 0.9948 -0.1018
vn 0.0000 0.9965 0.0837
vn 0.0000 0.9080 -0.4191
vn 0.0000 -0.2929 -0.9561
vn 0.0000 -0.9080 0.4191
vn 0.0000 -0.6305 -0.7762
vn 0.0000 -0.9948 0.1018
vn 0.0000 -0.2612 0.9653
vn 0.0000 -0.9064 -0.4224
vn 0.0000 -0.5969 0.8023
vn 0.0000 -0.9966 -0.0830
vn -1.0000 0.0013 0.0000
vn -1.0000 0.0006 0.0000
vn 1.0000 0.0010 0.0000
vn 0.0000 -0.2917 -0.9565
vn 0.0000 -0.2931 -0.9561
vn 0.0000 -0.9080 0.4190
vn 0.0000 -0.2610 0.9653
vn 0.0000 -0.2622 0.9650
vn 0.0000 -0.9064 -0.4225
vn -1.0000 -0.0001 0.0000
vn 0.0000 -0.9965 -0.0837
usemtl Material.001
s off
f 1/1/1 3/2/1 4/3/1
f 5/4/2 7/5/2 6/6/2
f 5/7/3 2/8/3 1/9/3
f 6/10/4 3/11/4 2/12/4
f 7/13/5 4/14/5 3/15/5
f 1/16/6 8/17/6 5/18/6
f 12/19/7 23/20/7 22/21/7
f 14/22/8 21/23/8 24/24/8
f 32/25/1 9/26/1 29/27/1
f 31/28/9 14/29/9 30/30/9
f 20/31/4 9/32/4 13/33/4
f 75/34/3 20/35/3 67/36/3
f 18/37/6 15/38/6 11/39/6
f 60/40/5 18/41/5 56/42/5
f 24/43/10 17/44/10 20/45/10
f 22/46/11 19/47/11 18/48/11
f 62/49/5 40/50/5 25/51/5
f 45/52/3 41/53/3 34/54/3
f 33/55/12 28/56/12 36/57/12
f 34/58/1 25/59/1 35/60/1
f 10/61/5 71/62/5 74/63/5
f 9/64/5 68/65/5 29/66/5
f 21/67/5 82/68/5 84/69/5
f 37/70/3 61/71/3 27/72/3
f 26/73/13 30/74/13 28/75/13
f 27/76/1 29/77/1 25/78/1
f 16/79/3 47/80/3 48/81/3
f 15/82/1 35/83/1 11/84/1
f 12/85/14 36/86/14 16/87/14
f 15/88/3 55/89/3 34/90/3
f 23/91/3 54/92/3 70/93/3
f 39/94/5 42/95/5 25/96/5
f 56/97/4 59/98/4 60/99/4
f 84/100/15 80/101/15 83/102/15
f 68/103/6 75/104/6 67/105/6
f 77/106/2 62/107/2 78/108/2
f 50/109/16 48/110/16 47/111/16
f 45/112/2 55/113/2 46/114/2
f 79/115/17 72/116/17 81/117/17
f 44/118/18 57/119/18 43/120/18
f 65/121/5 31/122/5 26/123/5
f 54/124/19 53/125/19 69/126/19
f 61/127/2 40/128/2 62/129/2
f 57/130/3 36/131/3 28/132/3
f 49/133/5 12/134/5 52/135/5
f 38/136/2 42/137/2 39/138/2
f 80/139/3 24/140/3 83/141/3
f 71/142/20 66/143/20 73/144/20
f 44/145/5 26/146/5 58/147/5
f 53/148/5 22/149/5 69/150/5
f 51/151/21 49/152/21 52/153/21
f 64/154/22 44/155/22 63/156/22
f 72/157/3 14/158/3 81/159/3
f 66/160/3 28/161/3 30/162/3
f 1/1/1 2/163/1 3/2/1
f 5/4/2 8/164/2 7/5/2
f 5/7/3 6/165/3 2/8/3
f 6/10/4 7/166/4 3/11/4
f 7/13/5 8/167/5 4/14/5
f 1/16/6 4/168/6 8/17/6
f 12/19/7 16/169/7 23/20/7
f 14/22/8 10/170/8 21/23/8
f 32/25/1 13/171/1 9/26/1
f 31/28/9 10/172/9 14/29/9
f 20/31/4 17/173/4 9/32/4
f 13/174/3 32/175/3 67/36/3
f 32/175/3 77/176/3 67/36/3
f 83/177/3 20/35/3 75/34/3
f 13/174/3 67/36/3 20/35/3
f 18/37/6 19/178/6 15/38/6
f 11/179/5 35/180/5 56/42/5
f 35/180/5 46/181/5 56/42/5
f 69/182/23 18/41/23 60/40/23
f 11/179/5 56/42/5 18/41/5
f 24/43/10 21/183/10 17/44/10
f 22/46/11 23/184/11 19/47/11
f 25/51/5 29/185/5 62/49/5
f 78/186/5 62/49/5 29/185/5
f 40/50/5 39/187/5 25/51/5
f 27/188/3 34/54/3 41/53/3
f 41/53/3 38/189/3 27/188/3
f 33/55/12 26/190/12 28/56/12
f 34/58/1 27/191/1 25/59/1
f 79/192/5 21/193/5 10/61/5
f 10/61/5 31/194/5 71/62/5
f 74/63/5 79/192/5 10/61/5
f 9/64/5 17/195/5 68/65/5
f 17/195/24 84/196/24 76/197/24
f 78/198/5 29/66/5 68/65/5
f 17/195/5 76/197/5 68/65/5
f 84/69/5 17/199/5 21/67/5
f 21/67/5 79/200/5 82/68/5
f 32/201/3 27/72/3 61/71/3
f 38/202/3 37/70/3 27/72/3
f 61/71/3 77/203/3 32/201/3
f 26/73/13 31/204/13 30/74/13
f 27/76/1 32/205/1 29/77/1
f 51/206/3 23/207/3 16/79/3
f 16/79/3 36/208/3 47/80/3
f 48/81/3 51/206/3 16/79/3
f 15/82/1 34/209/1 35/83/1
f 12/85/14 33/210/14 36/86/14
f 15/88/3 19/211/3 55/89/3
f 19/211/25 70/212/25 59/213/25
f 45/214/3 34/90/3 55/89/3
f 19/211/3 59/213/3 55/89/3
f 70/93/3 19/215/3 23/91/3
f 23/91/3 51/216/3 54/92/3
f 35/217/5 25/96/5 42/95/5
f 42/95/5 46/218/5 35/217/5
f 56/97/4 55/219/4 59/98/4
f 83/102/26 75/220/26 76/221/26
f 84/100/15 82/222/15 80/101/15
f 83/102/27 76/221/27 84/100/27
f 68/103/6 76/223/6 75/104/6
f 78/108/2 68/224/2 67/225/2
f 77/106/2 61/226/2 62/107/2
f 78/108/2 67/225/2 77/106/2
f 47/111/16 57/227/16 58/228/16
f 50/109/28 49/229/28 48/110/28
f 47/111/16 58/228/16 50/109/16
f 46/114/2 42/230/2 41/231/2
f 41/231/2 45/112/2 46/114/2
f 55/113/2 56/232/2 46/114/2
f 81/117/17 80/233/17 82/234/17
f 79/115/17 74/235/17 72/116/17
f 81/117/17 82/234/17 79/115/17
f 44/118/18 58/236/18 57/119/18
f 26/123/5 64/237/5 65/121/5
f 65/121/5 71/238/5 31/122/5
f 69/126/29 60/239/29 59/240/29
f 70/241/19 54/124/19 69/126/19
f 69/126/30 59/240/30 70/241/30
f 61/127/2 37/242/2 40/128/2
f 28/132/3 63/243/3 43/244/3
f 57/130/3 47/245/3 36/131/3
f 28/132/3 43/244/3 57/130/3
f 22/246/5 52/135/5 12/134/5
f 49/133/5 50/247/5 12/134/5
f 33/248/5 12/134/5 50/247/5
f 39/138/2 40/249/2 37/250/2
f 38/136/2 41/251/2 42/137/2
f 39/138/2 37/250/2 38/136/2
f 20/252/3 83/141/3 24/140/3
f 80/139/3 81/253/3 24/140/3
f 73/144/20 72/254/20 74/255/20
f 71/142/20 65/256/20 66/143/20
f 73/144/31 74/255/31 71/142/31
f 33/257/5 50/258/5 58/147/5
f 44/145/32 64/259/32 26/146/32
f 33/257/5 58/147/5 26/146/5
f 18/260/5 69/150/5 22/149/5
f 53/148/5 52/261/5 22/149/5
f 52/153/21 53/262/21 54/263/21
f 51/151/21 48/264/21 49/152/21
f 52/153/21 54/263/21 51/151/21
f 63/156/33 66/265/33 65/266/33
f 65/266/33 64/154/33 63/156/33
f 44/155/22 43/267/22 63/156/22
f 24/268/3 81/159/3 14/158/3
f 72/157/3 73/269/3 14/158/3
f 30/270/3 14/158/3 73/269/3
f 30/162/3 73/271/3 66/160/3
f 66/160/3 63/272/3 28/161/3
