# Blender v2.78 (sub 0) OBJ File: 'cement_mixer.blend'
# www.blender.org
mtllib cement_mixer.mtl
o Cube.007_Cube.008
v 0.144029 1.011899 0.745795
v 0.144029 1.069494 0.745795
v 0.246980 1.011899 0.840802
v 0.246980 1.069494 0.840802
v 0.106396 1.011899 0.837811
v 0.106396 1.069494 0.837811
v 0.067951 1.011899 0.933895
v 0.067951 1.069494 0.933895
v 0.242178 1.011899 0.138989
v 0.242178 1.069494 0.138989
v 0.147171 1.011899 0.241941
v 0.147171 1.069494 0.241941
v 0.150162 1.011899 0.101357
v 0.150162 1.069494 0.101357
v 0.054077 1.011899 0.062911
v 0.054077 1.069494 0.062911
v 0.859366 1.011899 0.248626
v 0.859366 1.069495 0.248626
v 0.756415 1.011899 0.153619
v 0.756415 1.069494 0.153619
v 0.896999 1.011899 0.156610
v 0.896999 1.069495 0.156610
v 0.935444 1.011899 0.060525
v 0.935444 1.069495 0.060525
v 0.750473 1.011899 0.870712
v 0.750473 1.069494 0.870712
v 0.845479 1.011899 0.767761
v 0.845479 1.069495 0.767761
v 0.842488 1.011899 0.908344
v 0.842488 1.069495 0.908344
v 0.938573 1.011899 0.946790
v 0.938573 1.069495 0.946790
v 0.021786 -0.000000 0.977631
v 0.021786 1.080053 0.977631
v 0.021786 -0.000000 0.877631
v 0.021786 1.080053 0.877631
v 0.121786 0.000000 0.977631
v 0.121786 1.080053 0.977631
v 0.121786 0.000000 0.877631
v 0.121786 1.080053 0.877631
v 0.021786 -0.000000 0.126036
v 0.021786 1.080325 0.126036
v 0.021786 -0.000000 0.026036
v 0.021786 1.080325 0.026036
v 0.121786 0.000000 0.126036
v 0.121786 1.080325 0.126036
v 0.121786 0.000000 0.026036
v 0.121786 1.080325 0.026036
v 0.871864 0.000001 0.126036
v 0.871864 1.083310 0.126036
v 0.871864 0.000001 0.026036
v 0.871864 1.083310 0.026036
v 0.971864 0.000001 0.126036
v 0.971864 1.083310 0.126036
v 0.971864 0.000001 0.026036
v 0.971864 1.083310 0.026036
v 0.871864 0.000001 0.978490
v 0.871864 1.084040 0.978490
v 0.871864 0.000001 0.878490
v 0.871864 1.084040 0.878490
v 0.971864 0.000001 0.978490
v 0.971864 1.084040 0.978490
v 0.971864 0.000001 0.878490
v 0.971864 1.084040 0.878490
v 0.500000 0.998244 0.011828
v 0.500000 1.485055 0.011828
v 0.744086 0.998244 0.077231
v 0.744086 1.485056 0.077231
v 0.922769 0.998244 0.255914
v 0.922769 1.485056 0.255914
v 0.988172 0.998244 0.500000
v 0.988172 1.485056 0.500000
v 0.922769 0.998244 0.744086
v 0.922769 1.485056 0.744086
v 0.744086 0.998244 0.922769
v 0.744086 1.485056 0.922769
v 0.500000 0.998244 0.988172
v 0.500000 1.485055 0.988172
v 0.255914 0.998243 0.922769
v 0.255914 1.485055 0.922769
v 0.077231 0.998243 0.744086
v 0.077231 1.485055 0.744086
v 0.011828 0.998243 0.500000
v 0.011828 1.485055 0.500000
v 0.077231 0.998243 0.255915
v 0.077231 1.485055 0.255915
v 0.255914 0.998243 0.077231
v 0.255914 1.485055 0.077231
v 0.500000 1.480821 0.012054
v 0.500000 1.855124 0.146212
v 0.743973 1.480822 0.077426
v 0.676894 1.855124 0.193610
v 0.922574 1.480822 0.256027
v 0.806390 1.855124 0.323106
v 0.987947 1.480822 0.500000
v 0.853788 1.855124 0.500000
v 0.922574 1.480822 0.743973
v 0.806390 1.855124 0.676894
v 0.743973 1.480822 0.922574
v 0.676894 1.855124 0.806390
v 0.500000 1.480821 0.987946
v 0.500000 1.855124 0.853788
v 0.256027 1.480821 0.922574
v 0.323106 1.855124 0.806390
v 0.077426 1.480821 0.743973
v 0.193611 1.855124 0.676894
v 0.012053 1.480821 0.500000
v 0.146212 1.855124 0.500000
v 0.077426 1.480821 0.256027
v 0.193610 1.855124 0.323106
v 0.256026 1.480821 0.077426
v 0.323106 1.855124 0.193611
vt 0.7063 0.8527
vt 0.7510 0.8711
vt 0.7063 0.8711
vt 0.0650 0.8693
vt 0.0006 0.8510
vt 0.0650 0.8510
vt 0.1903 0.8723
vt 0.1573 0.8539
vt 0.1903 0.8539
vt 0.8796 0.3011
vt 0.8479 0.2828
vt 0.8796 0.2828
vt 0.6669 0.2392
vt 0.6967 0.2728
vt 0.6669 0.2839
vt 0.7063 0.8514
vt 0.7360 0.8178
vt 0.7669 0.8296
vt 0.0663 0.8693
vt 0.1111 0.8510
vt 0.1111 0.8693
vt 0.5607 0.8499
vt 0.4963 0.8683
vt 0.4963 0.8499
vt 0.8346 0.1284
vt 0.8677 0.1467
vt 0.8346 0.1467
vt 0.8479 0.2434
vt 0.8796 0.2618
vt 0.8479 0.2618
vt 0.2179 0.8526
vt 0.1882 0.8190
vt 0.2179 0.8079
vt 0.5867 0.4594
vt 0.5474 0.4810
vt 0.5223 0.4594
vt 0.6031 0.7850
vt 0.5583 0.8034
vt 0.5583 0.7850
vt 0.4306 0.8499
vt 0.4950 0.8683
vt 0.4306 0.8683
vt 0.1123 0.8510
vt 0.1454 0.8693
vt 0.1123 0.8693
vt 0.8479 0.2815
vt 0.8796 0.2631
vt 0.8796 0.2815
vt 0.6656 0.2839
vt 0.6359 0.2503
vt 0.6656 0.2392
vt 0.2179 0.7619
vt 0.1882 0.7955
vt 0.1573 0.7837
vt 0.6984 0.5110
vt 0.6537 0.4927
vt 0.6984 0.4927
vt 0.7689 0.1284
vt 0.8333 0.1467
vt 0.7689 0.1467
vt 0.2247 0.8539
vt 0.1916 0.8723
vt 0.1916 0.8539
vt 0.8796 0.2237
vt 0.8479 0.2421
vt 0.8479 0.2237
vt 0.6004 0.6861
vt 0.5789 0.7255
vt 0.5583 0.7013
vt 0.5880 0.5015
vt 0.6274 0.4800
vt 0.6524 0.5015
vt 0.9994 0.6475
vt 0.9674 0.3028
vt 0.9994 0.3028
vt 0.8001 0.9948
vt 0.7682 0.6501
vt 0.8001 0.6501
vt 0.8333 0.9948
vt 0.8014 0.6501
vt 0.8333 0.6501
vt 0.8997 0.6498
vt 0.8678 0.9945
vt 0.8678 0.6498
vt 0.8147 0.1573
vt 0.8466 0.1892
vt 0.8147 0.1892
vt 0.8479 0.1573
vt 0.8798 0.1892
vt 0.8479 0.1892
vt 0.9329 0.9946
vt 0.9010 0.6498
vt 0.9329 0.6498
vt 0.9661 0.6476
vt 0.9342 0.3028
vt 0.9661 0.3028
vt 0.9661 0.9937
vt 0.9342 0.6489
vt 0.9661 0.6489
vt 0.8665 0.9946
vt 0.8346 0.6498
vt 0.8665 0.6498
vt 0.6537 0.4594
vt 0.6857 0.4914
vt 0.6537 0.4914
vt 0.8147 0.2237
vt 0.8466 0.2556
vt 0.8147 0.2556
vt 0.9329 0.6485
vt 0.9010 0.3028
vt 0.9329 0.3028
vt 0.8997 0.6485
vt 0.8678 0.3028
vt 0.8997 0.3028
vt 0.8665 0.6485
vt 0.8346 0.3028
vt 0.8665 0.3028
vt 0.2712 0.6052
vt 0.2393 0.9509
vt 0.2393 0.6052
vt 0.5583 0.7518
vt 0.5903 0.7837
vt 0.5583 0.7837
vt 0.8147 0.2569
vt 0.8466 0.2889
vt 0.8147 0.2889
vt 0.8001 0.6488
vt 0.7682 0.3028
vt 0.8001 0.3028
vt 0.8333 0.6488
vt 0.8014 0.3028
vt 0.8333 0.3028
vt 0.7337 0.8054
vt 0.7018 0.4594
vt 0.7337 0.4594
vt 0.7669 0.4594
vt 0.7350 0.8054
vt 0.7350 0.4594
vt 0.8147 0.1905
vt 0.8466 0.2224
vt 0.8147 0.2224
vt 0.8479 0.1905
vt 0.8798 0.2224
vt 0.8479 0.2224
vt 0.4583 0.6042
vt 0.3029 0.6848
vt 0.3029 0.6042
vt 0.6150 0.5222
vt 0.4596 0.6029
vt 0.4596 0.5222
vt 0.6150 0.6042
vt 0.4596 0.6848
vt 0.4596 0.6042
vt 0.0006 0.6859
vt 0.1560 0.6052
vt 0.1560 0.6859
vt 0.7669 0.3028
vt 0.6862 0.4582
vt 0.6862 0.3028
vt 0.6969 0.5222
vt 0.6162 0.6776
vt 0.6162 0.5222
vt 0.6849 0.3028
vt 0.6043 0.4582
vt 0.6043 0.3028
vt 0.2380 0.6052
vt 0.1573 0.7606
vt 0.1573 0.6052
vt 0.7677 0.0006
vt 0.6870 0.1560
vt 0.6870 0.0006
vt 0.6030 0.4582
vt 0.5223 0.3028
vt 0.6030 0.3028
vt 0.1108 0.3029
vt 0.1915 0.6039
vt 0.0410 0.5636
vt 0.6857 0.1560
vt 0.6051 0.0006
vt 0.6857 0.0006
vt 0.4583 0.5222
vt 0.3029 0.6029
vt 0.3029 0.5222
vt 0.1108 0.0006
vt 0.3016 0.1915
vt 0.0410 0.2613
vt 0.5571 0.6972
vt 0.4306 0.7667
vt 0.4306 0.6861
vt 0.4293 0.7791
vt 0.3029 0.8486
vt 0.3029 0.7680
vt 0.6969 0.8177
vt 0.5704 0.8872
vt 0.5704 0.8066
vt 0.0006 0.8386
vt 0.1271 0.7691
vt 0.1271 0.8497
vt 0.4293 0.9305
vt 0.3029 0.8610
vt 0.4293 0.8499
vt 0.5571 0.8486
vt 0.4306 0.7791
vt 0.5571 0.7680
vt 0.8496 0.0006
vt 0.7800 0.1271
vt 0.7689 0.0006
vt 0.6969 0.6789
vt 0.6273 0.8053
vt 0.6162 0.6789
vt 0.8134 0.1573
vt 0.7439 0.2837
vt 0.7328 0.1573
vt 0.1271 0.6982
vt 0.0006 0.7678
vt 0.0006 0.6871
vt 0.3321 0.4917
vt 0.3828 0.3028
vt 0.4412 0.5209
vt 0.4293 0.6972
vt 0.3029 0.7667
vt 0.3029 0.6861
vt 0.7315 0.1684
vt 0.6051 0.2379
vt 0.6051 0.1573
vt 0.4937 0.3015
vt 0.3432 0.2612
vt 0.4130 0.0006
vt 0.7510 0.8527
vt 0.0006 0.8693
vt 0.1573 0.8723
vt 0.8479 0.3011
vt 0.7275 0.2611
vt 0.7063 0.8067
vt 0.0663 0.8510
vt 0.5607 0.8683
vt 0.8677 0.1284
vt 0.8796 0.2434
vt 0.1573 0.8307
vt 0.5716 0.5015
vt 0.6031 0.8034
vt 0.4950 0.8499
vt 0.1454 0.8510
vt 0.8479 0.2631
vt 0.6051 0.2621
vt 0.2179 0.8066
vt 0.6537 0.5110
vt 0.8333 0.1284
vt 0.2247 0.8723
vt 0.8796 0.2421
vt 0.6004 0.7505
vt 0.6032 0.4594
vt 0.9674 0.6475
vt 0.7682 0.9948
vt 0.8014 0.9948
vt 0.8997 0.9945
vt 0.8466 0.1573
vt 0.8798 0.1573
vt 0.9010 0.9946
vt 0.9342 0.6476
vt 0.9342 0.9937
vt 0.8346 0.9946
vt 0.6857 0.4594
vt 0.8466 0.2237
vt 0.9010 0.6485
vt 0.8678 0.6485
vt 0.8346 0.6485
vt 0.2712 0.9509
vt 0.5903 0.7518
vt 0.8466 0.2569
vt 0.7682 0.6488
vt 0.8014 0.6488
vt 0.7018 0.8054
vt 0.7669 0.8054
vt 0.8466 0.1905
vt 0.8798 0.1905
vt 0.4583 0.6848
vt 0.6150 0.6029
vt 0.6150 0.6848
vt 0.0006 0.6052
vt 0.7669 0.4582
vt 0.6969 0.6776
vt 0.6849 0.4582
vt 0.2380 0.7606
vt 0.7677 0.1560
vt 0.5223 0.4582
vt 0.0006 0.4937
vt 0.0006 0.4131
vt 0.0410 0.3432
vt 0.1915 0.3029
vt 0.2613 0.3432
vt 0.3016 0.4131
vt 0.3016 0.4937
vt 0.2613 0.5636
vt 0.1108 0.6039
vt 0.6051 0.1560
vt 0.4583 0.6029
vt 0.0006 0.1915
vt 0.0006 0.1108
vt 0.0410 0.0410
vt 0.1915 0.0006
vt 0.2613 0.0410
vt 0.3016 0.1108
vt 0.2613 0.2613
vt 0.1915 0.3016
vt 0.1108 0.3016
vt 0.5571 0.7556
vt 0.4293 0.8375
vt 0.6969 0.8761
vt 0.0006 0.7801
vt 0.3029 0.9194
vt 0.4306 0.8375
vt 0.8385 0.1271
vt 0.6858 0.8053
vt 0.8023 0.2837
vt 0.1271 0.7567
vt 0.5211 0.4411
vt 0.4918 0.4917
vt 0.3828 0.5209
vt 0.3029 0.4411
vt 0.3029 0.3826
vt 0.3321 0.3320
vt 0.4412 0.3028
vt 0.4918 0.3320
vt 0.5211 0.3826
vt 0.4293 0.7556
vt 0.7315 0.2268
vt 0.4937 0.0006
vt 0.5635 0.0410
vt 0.6038 0.1108
vt 0.6038 0.1914
vt 0.5635 0.2612
vt 0.4130 0.3015
vt 0.3029 0.1914
vt 0.3029 0.1108
vt 0.3432 0.0410
vn 0.6782 0.0000 -0.7349
vn 0.4613 0.0000 0.8872
vn -0.9284 0.0000 -0.3715
vn -0.9256 0.0000 -0.3785
vn 0.0000 -1.0000 0.0000
vn 0.0000 1.0000 0.0000
vn 0.7349 0.0000 0.6782
vn -0.8872 0.0000 0.4613
vn 0.3715 0.0000 -0.9284
vn 0.3785 0.0000 -0.9256
vn -0.6782 0.0000 0.7349
vn -0.4613 0.0000 -0.8872
vn 0.9284 0.0000 0.3715
vn 0.9256 0.0000 0.3785
vn -0.7349 0.0000 -0.6782
vn 0.8872 0.0000 -0.4613
vn -0.3715 0.0000 0.9284
vn -0.3785 0.0000 0.9256
vn -1.0000 0.0000 0.0000
vn 0.0000 0.0000 -1.0000
vn 1.0000 0.0000 -0.0000
vn 0.0000 0.0000 1.0000
vn 0.2588 0.0000 -0.9659
vn 0.7071 0.0000 -0.7071
vn 0.9659 0.0000 -0.2588
vn 0.9659 0.0000 0.2588
vn 0.7071 0.0000 0.7071
vn 0.2588 0.0000 0.9659
vn -0.2588 0.0000 0.9659
vn -0.7071 0.0000 0.7071
vn -0.9659 0.0000 0.2588
vn -0.9659 0.0000 -0.2588
vn -0.7071 0.0000 -0.7071
vn -0.2588 0.0000 -0.9659
vn 0.2446 0.3272 -0.9128
vn 0.6682 0.3272 -0.6682
vn 0.9128 0.3272 -0.2446
vn 0.9128 0.3272 0.2446
vn 0.6682 0.3272 0.6682
vn 0.2446 0.3272 0.9128
vn -0.2446 0.3272 0.9128
vn -0.6682 0.3272 0.6682
vn -0.9128 0.3272 0.2446
vn -0.9128 0.3272 -0.2446
vn -0.6682 0.3272 -0.6682
vn -0.2446 0.3272 -0.9128
usemtl Material
s off
f 2/1/1 3/2/1 1/3/1
f 4/4/2 7/5/2 3/6/2
f 8/7/3 5/8/3 7/9/3
f 6/10/4 1/11/4 5/12/4
f 3/13/5 5/14/5 1/15/5
f 4/16/6 6/17/6 8/18/6
f 9/19/7 12/20/7 11/21/7
f 11/22/8 16/23/8 15/24/8
f 16/25/9 13/26/9 15/27/9
f 14/28/10 9/29/10 13/30/10
f 11/31/5 13/32/5 9/33/5
f 12/34/6 14/35/6 16/36/6
f 17/37/11 20/38/11 19/39/11
f 20/40/12 23/41/12 19/42/12
f 24/43/13 21/44/13 23/45/13
f 21/46/14 18/47/14 17/48/14
f 19/49/5 21/50/5 17/51/5
f 20/52/6 22/53/6 24/54/6
f 26/55/15 27/56/15 25/57/15
f 28/58/16 31/59/16 27/60/16
f 31/61/17 30/62/17 29/63/17
f 29/64/18 26/65/18 25/66/18
f 27/67/5 29/68/5 25/69/5
f 28/70/6 30/71/6 32/72/6
f 34/73/19 35/74/19 33/75/19
f 36/76/20 39/77/20 35/78/20
f 40/79/21 37/80/21 39/81/21
f 37/82/22 34/83/22 33/84/22
f 39/85/5 33/86/5 35/87/5
f 36/88/6 38/89/6 40/90/6
f 42/91/19 43/92/19 41/93/19
f 44/94/20 47/95/20 43/96/20
f 48/97/21 45/98/21 47/99/21
f 46/100/22 41/101/22 45/102/22
f 47/103/5 41/104/5 43/105/5
f 44/106/6 46/107/6 48/108/6
f 50/109/19 51/110/19 49/111/19
f 52/112/20 55/113/20 51/114/20
f 56/115/21 53/116/21 55/117/21
f 53/118/22 50/119/22 49/120/22
f 55/121/5 49/122/5 51/123/5
f 52/124/6 54/125/6 56/126/6
f 58/127/19 59/128/19 57/129/19
f 60/130/20 63/131/20 59/132/20
f 64/133/21 61/134/21 63/135/21
f 61/136/22 58/137/22 57/138/22
f 63/139/5 57/140/5 59/141/5
f 60/142/6 62/143/6 64/144/6
f 66/145/23 67/146/23 65/147/23
f 68/148/24 69/149/24 67/150/24
f 70/151/25 71/152/25 69/153/25
f 72/154/26 73/155/26 71/156/26
f 73/157/27 76/158/27 75/159/27
f 75/160/28 78/161/28 77/162/28
f 77/163/29 80/164/29 79/165/29
f 79/166/30 82/167/30 81/168/30
f 81/169/31 84/170/31 83/171/31
f 84/172/32 85/173/32 83/174/32
f 86/175/6 74/176/6 70/177/6
f 86/178/33 87/179/33 85/180/33
f 88/181/34 65/182/34 87/183/34
f 71/184/5 79/185/5 87/186/5
f 90/187/35 91/188/35 89/189/35
f 92/190/36 93/191/36 91/192/36
f 94/193/37 95/194/37 93/195/37
f 96/196/38 97/197/38 95/198/38
f 97/199/39 100/200/39 99/201/39
f 99/202/40 102/203/40 101/204/40
f 101/205/41 104/206/41 103/207/41
f 103/208/42 106/209/42 105/210/42
f 105/211/43 108/212/43 107/213/43
f 108/214/44 109/215/44 107/216/44
f 110/217/6 102/218/6 90/219/6
f 110/220/45 111/221/45 109/222/45
f 112/223/46 89/224/46 111/225/46
f 99/226/5 103/227/5 111/228/5
f 2/1/1 4/229/1 3/2/1
f 4/4/2 8/230/2 7/5/2
f 8/7/3 6/231/3 5/8/3
f 6/10/4 2/232/4 1/11/4
f 3/13/5 7/233/5 5/14/5
f 4/16/6 2/234/6 6/17/6
f 9/19/7 10/235/7 12/20/7
f 11/22/8 12/236/8 16/23/8
f 16/25/9 14/237/9 13/26/9
f 14/28/10 10/238/10 9/29/10
f 11/31/5 15/239/5 13/32/5
f 12/34/6 10/240/6 14/35/6
f 17/37/11 18/241/11 20/38/11
f 20/40/12 24/242/12 23/41/12
f 24/43/13 22/243/13 21/44/13
f 21/46/14 22/244/14 18/47/14
f 19/49/5 23/245/5 21/50/5
f 20/52/6 18/246/6 22/53/6
f 26/55/15 28/247/15 27/56/15
f 28/58/16 32/248/16 31/59/16
f 31/61/17 32/249/17 30/62/17
f 29/64/18 30/250/18 26/65/18
f 27/67/5 31/251/5 29/68/5
f 28/70/6 26/252/6 30/71/6
f 34/73/19 36/253/19 35/74/19
f 36/76/20 40/254/20 39/77/20
f 40/79/21 38/255/21 37/80/21
f 37/82/22 38/256/22 34/83/22
f 39/85/5 37/257/5 33/86/5
f 36/88/6 34/258/6 38/89/6
f 42/91/19 44/259/19 43/92/19
f 44/94/20 48/260/20 47/95/20
f 48/97/21 46/261/21 45/98/21
f 46/100/22 42/262/22 41/101/22
f 47/103/5 45/263/5 41/104/5
f 44/106/6 42/264/6 46/107/6
f 50/109/19 52/265/19 51/110/19
f 52/112/20 56/266/20 55/113/20
f 56/115/21 54/267/21 53/116/21
f 53/118/22 54/268/22 50/119/22
f 55/121/5 53/269/5 49/122/5
f 52/124/6 50/270/6 54/125/6
f 58/127/19 60/271/19 59/128/19
f 60/130/20 64/272/20 63/131/20
f 64/133/21 62/273/21 61/134/21
f 61/136/22 62/274/22 58/137/22
f 63/139/5 61/275/5 57/140/5
f 60/142/6 58/276/6 62/143/6
f 66/145/23 68/277/23 67/146/23
f 68/148/24 70/278/24 69/149/24
f 70/151/25 72/279/25 71/152/25
f 72/154/26 74/280/26 73/155/26
f 73/157/27 74/281/27 76/158/27
f 75/160/28 76/282/28 78/161/28
f 77/163/29 78/283/29 80/164/29
f 79/166/30 80/284/30 82/167/30
f 81/169/31 82/285/31 84/170/31
f 84/172/32 86/286/32 85/173/32
f 70/177/6 68/287/6 66/288/6
f 66/288/6 88/289/6 86/175/6
f 86/175/6 84/290/6 82/291/6
f 82/291/6 80/292/6 78/293/6
f 78/293/6 76/294/6 74/176/6
f 74/176/6 72/295/6 70/177/6
f 70/177/6 66/288/6 86/175/6
f 86/175/6 82/291/6 78/293/6
f 78/293/6 74/176/6 86/175/6
f 86/178/33 88/296/33 87/179/33
f 88/181/34 66/297/34 65/182/34
f 87/186/5 65/298/5 67/299/5
f 67/299/5 69/300/5 71/184/5
f 71/184/5 73/301/5 75/302/5
f 75/302/5 77/303/5 79/185/5
f 79/185/5 81/304/5 83/305/5
f 83/305/5 85/306/5 79/185/5
f 87/186/5 67/299/5 71/184/5
f 71/184/5 75/302/5 79/185/5
f 79/185/5 85/306/5 87/186/5
f 90/187/35 92/307/35 91/188/35
f 92/190/36 94/308/36 93/191/36
f 94/193/37 96/309/37 95/194/37
f 96/196/38 98/310/38 97/197/38
f 97/199/39 98/311/39 100/200/39
f 99/202/40 100/312/40 102/203/40
f 101/205/41 102/313/41 104/206/41
f 103/208/42 104/314/42 106/209/42
f 105/211/43 106/315/43 108/212/43
f 108/214/44 110/316/44 109/215/44
f 94/317/6 92/318/6 90/219/6
f 90/219/6 112/319/6 110/217/6
f 110/217/6 108/320/6 102/218/6
f 106/321/6 104/322/6 102/218/6
f 102/218/6 100/323/6 98/324/6
f 98/324/6 96/325/6 94/317/6
f 94/317/6 90/219/6 102/218/6
f 108/320/6 106/321/6 102/218/6
f 102/218/6 98/324/6 94/317/6
f 110/220/45 112/326/45 111/221/45
f 112/223/46 90/327/46 89/224/46
f 111/228/5 89/328/5 91/329/5
f 91/329/5 93/330/5 111/228/5
f 95/331/5 97/332/5 99/226/5
f 99/226/5 101/333/5 103/227/5
f 103/227/5 105/334/5 111/228/5
f 107/335/5 109/336/5 111/228/5
f 111/228/5 93/330/5 95/331/5
f 95/331/5 99/226/5 111/228/5
f 105/334/5 107/335/5 111/228/5
