# Blender v2.79 (sub 0) OBJ File: ''
# www.blender.org
mtllib chest_shop.mtl
o Cube
v 1.000000 0.000000 -0.112058
v 1.000000 0.000000 0.887942
v -0.000000 0.000000 0.887942
v 0.000000 0.000000 -0.112059
v 1.000000 1.000000 -0.112058
v 1.000000 1.000000 0.887942
v -0.000000 1.000000 0.887941
v 0.000000 1.000000 -0.112058
v 0.875813 0.307579 -0.080453
v 0.875813 0.307579 0.843547
v 0.875813 0.057579 0.843547
v 0.875813 0.057579 -0.080453
v 0.875813 0.267579 -0.032453
v 0.875813 0.267579 0.795547
v 0.875813 0.097579 0.795547
v 0.875813 0.097579 -0.032453
v 1.075813 0.307579 -0.080453
v 1.075813 0.307579 0.843547
v 1.075813 0.057579 0.843547
v 1.075813 0.057579 -0.080453
v 1.075813 0.267579 -0.032453
v 1.075813 0.267579 0.795547
v 1.075813 0.097579 0.795547
v 1.075813 0.097579 -0.032453
v 1.078234 0.952113 0.846321
v 1.078234 0.952113 -0.077679
v 1.078234 0.342113 -0.077679
v 1.078234 0.342113 0.846321
v 1.078234 0.912113 0.798321
v 1.078234 0.912113 -0.029679
v 1.078234 0.382113 -0.029679
v 1.078234 0.382113 0.798321
v 0.878234 0.952113 0.846321
v 0.878234 0.952113 -0.077679
v 0.878234 0.342113 -0.077679
v 0.878234 0.342113 0.846321
v 0.878234 0.912113 0.798321
v 0.878234 0.912113 -0.029679
v 0.878234 0.382113 -0.029679
v 0.878234 0.382113 0.798321
vt 0.333805 0.332862
vt 0.666196 0.000471
vt 0.666196 0.332862
vt 0.000471 0.332862
vt 0.332862 0.000471
vt 0.332862 0.332862
vt 0.666196 0.666196
vt 0.333805 0.333804
vt 0.666196 0.333804
vt 0.332862 0.999529
vt 0.000471 0.667138
vt 0.332862 0.667138
vt 0.667138 0.000471
vt 0.999529 0.332862
vt 0.667138 0.332862
vt 0.332862 0.666196
vt 0.000471 0.333805
vt 0.332862 0.333804
vt 0.641874 0.964354
vt 0.933047 0.951058
vt 0.949002 0.964354
vt 0.953439 0.537505
vt 0.969394 0.607307
vt 0.953439 0.620603
vt 0.974265 0.652900
vt 0.683093 0.666195
vt 0.667138 0.652900
vt 0.969672 0.416902
vt 0.953717 0.347100
vt 0.969672 0.333804
vt 0.333805 0.978592
vt 0.624977 0.965296
vt 0.640932 0.978592
vt 0.951832 0.870838
vt 0.967787 0.940640
vt 0.951832 0.953936
vt 0.974265 0.624423
vt 0.683093 0.637719
vt 0.667138 0.624423
vt 0.969672 0.500942
vt 0.953717 0.431140
vt 0.969672 0.417844
vt 0.333805 0.868457
vt 0.640934 0.801979
vt 0.640934 0.868457
vt 0.751178 0.537505
vt 0.817656 0.620603
vt 0.751178 0.620603
vt 0.640934 0.734558
vt 0.333805 0.801036
vt 0.333805 0.734558
vt 0.750236 0.537505
vt 0.667138 0.603983
vt 0.667138 0.537505
vt 0.641876 0.935878
vt 0.917096 0.869399
vt 0.917096 0.935878
vt 0.886019 0.537505
vt 0.952497 0.594012
vt 0.886019 0.594012
vt 0.917096 0.734558
vt 0.641876 0.801036
vt 0.641876 0.734558
vt 0.818598 0.537505
vt 0.885077 0.594012
vt 0.818598 0.594012
vt 0.949003 0.936820
vt 0.657831 0.950116
vt 0.641876 0.936820
vt 0.934935 0.667138
vt 0.950890 0.856600
vt 0.934935 0.869896
vt 0.333805 0.950116
vt 0.624977 0.936820
vt 0.640932 0.950116
vt 0.952775 0.536563
vt 0.936820 0.347100
vt 0.952775 0.333804
vt 0.974265 0.638661
vt 0.683093 0.651957
vt 0.667138 0.638661
vt 0.918038 0.667138
vt 0.933993 0.856600
vt 0.918038 0.869896
vt 0.333805 0.964354
vt 0.624977 0.951058
vt 0.640932 0.964354
vt 0.967787 0.869896
vt 0.951832 0.680433
vt 0.967787 0.667138
vt 0.640934 0.667138
vt 0.333805 0.733616
vt 0.333805 0.667138
vt 0.734558 0.333804
vt 0.801037 0.536563
vt 0.734558 0.536563
vt 0.333805 0.935878
vt 0.640934 0.869399
vt 0.640934 0.935877
vt 0.733616 0.536563
vt 0.667138 0.333804
vt 0.733616 0.333804
vt 0.917096 0.801979
vt 0.641876 0.868457
vt 0.641876 0.801979
vt 0.801979 0.333804
vt 0.868457 0.509972
vt 0.801979 0.509972
vt 0.641876 0.733616
vt 0.917096 0.667138
vt 0.917096 0.733616
vt 0.935878 0.509972
vt 0.869399 0.333804
vt 0.935878 0.333804
vt 0.333805 0.000471
vt 0.000471 0.000471
vt 0.333805 0.666196
vt 0.000471 0.999529
vt 0.999529 0.000471
vt 0.000471 0.666196
vt 0.657829 0.951058
vt 0.969394 0.550801
vt 0.958311 0.666195
vt 0.953717 0.403607
vt 0.349759 0.965296
vt 0.967787 0.884134
vt 0.958311 0.637719
vt 0.953717 0.487647
vt 0.333805 0.801979
vt 0.817656 0.537505
vt 0.640934 0.801036
vt 0.750236 0.603983
vt 0.641876 0.869399
vt 0.952497 0.537505
vt 0.917096 0.801036
vt 0.885077 0.537505
vt 0.933049 0.950115
vt 0.950890 0.680433
vt 0.349759 0.936820
vt 0.936820 0.523267
vt 0.958311 0.651957
vt 0.933993 0.680433
vt 0.349759 0.951058
vt 0.951832 0.856600
vt 0.640934 0.733616
vt 0.801037 0.333804
vt 0.333805 0.869399
vt 0.667138 0.536563
vt 0.917096 0.868457
vt 0.868457 0.333804
vt 0.641876 0.667138
vt 0.869399 0.509972
vn 0.0000 -1.0000 0.0000
vn 0.0000 1.0000 0.0000
vn 1.0000 -0.0000 0.0000
vn -0.0000 -0.0000 1.0000
vn -1.0000 -0.0000 -0.0000
vn 0.0000 0.0000 -1.0000
usemtl Material.005
s off
f 2/1/1 4/2/1 1/3/1
f 8/4/2 6/5/2 5/6/2
f 5/7/3 2/8/3 1/9/3
f 6/10/4 3/11/4 2/12/4
f 7/13/5 4/14/5 3/15/5
f 1/16/6 8/17/6 5/18/6
f 10/19/3 13/20/3 9/21/3
f 11/22/3 14/23/3 10/24/3
f 12/25/3 15/26/3 11/27/3
f 9/28/3 16/29/3 12/30/3
f 18/31/3 21/32/3 17/33/3
f 19/34/3 22/35/3 18/36/3
f 20/37/3 23/38/3 19/39/3
f 17/40/3 24/41/3 20/42/3
f 10/43/2 17/44/2 9/45/2
f 11/46/4 18/47/4 10/48/4
f 12/49/1 19/50/1 11/51/1
f 9/52/6 20/53/6 12/54/6
f 14/55/2 21/56/2 13/57/2
f 15/58/4 22/59/4 14/60/4
f 16/61/1 23/62/1 15/63/1
f 13/64/6 24/65/6 16/66/6
f 26/67/5 29/68/5 25/69/5
f 27/70/5 30/71/5 26/72/5
f 28/73/5 31/74/5 27/75/5
f 25/76/5 32/77/5 28/78/5
f 34/79/5 37/80/5 33/81/5
f 35/82/5 38/83/5 34/84/5
f 36/85/5 39/86/5 35/87/5
f 33/88/5 40/89/5 36/90/5
f 26/91/2 33/92/2 25/93/2
f 27/94/6 34/95/6 26/96/6
f 28/97/1 35/98/1 27/99/1
f 25/100/4 36/101/4 28/102/4
f 30/103/2 37/104/2 29/105/2
f 31/106/6 38/107/6 30/108/6
f 32/109/1 39/110/1 31/111/1
f 29/112/4 40/113/4 32/114/4
f 2/1/1 3/115/1 4/2/1
f 8/4/2 7/116/2 6/5/2
f 5/7/3 6/117/3 2/8/3
f 6/10/4 7/118/4 3/11/4
f 7/13/5 8/119/5 4/14/5
f 1/16/6 4/120/6 8/17/6
f 10/19/3 14/121/3 13/20/3
f 11/22/3 15/122/3 14/23/3
f 12/25/3 16/123/3 15/26/3
f 9/28/3 13/124/3 16/29/3
f 18/31/3 22/125/3 21/32/3
f 19/34/3 23/126/3 22/35/3
f 20/37/3 24/127/3 23/38/3
f 17/40/3 21/128/3 24/41/3
f 10/43/2 18/129/2 17/44/2
f 11/46/4 19/130/4 18/47/4
f 12/49/1 20/131/1 19/50/1
f 9/52/6 17/132/6 20/53/6
f 14/55/2 22/133/2 21/56/2
f 15/58/4 23/134/4 22/59/4
f 16/61/1 24/135/1 23/62/1
f 13/64/6 21/136/6 24/65/6
f 26/67/5 30/137/5 29/68/5
f 27/70/5 31/138/5 30/71/5
f 28/73/5 32/139/5 31/74/5
f 25/76/5 29/140/5 32/77/5
f 34/79/5 38/141/5 37/80/5
f 35/82/5 39/142/5 38/83/5
f 36/85/5 40/143/5 39/86/5
f 33/88/5 37/144/5 40/89/5
f 26/91/2 34/145/2 33/92/2
f 27/94/6 35/146/6 34/95/6
f 28/97/1 36/147/1 35/98/1
f 25/100/4 33/148/4 36/101/4
f 30/103/2 38/149/2 37/104/2
f 31/106/6 39/150/6 38/107/6
f 32/109/1 40/151/1 39/110/1
f 29/112/4 37/152/4 40/113/4
