# Blender v2.79 (sub 0) OBJ File: ''
# www.blender.org
mtllib leaf_mulcher.mtl
o Cube.004
v 0.645000 1.071931 0.655000
v 0.425000 1.071931 0.585000
v 0.355000 1.071931 0.655000
v 0.425000 1.071931 0.415000
v 0.355000 1.071931 0.345000
v 0.645000 1.071931 0.345000
v 0.575000 1.071931 0.415000
v 0.645000 0.931931 0.655000
v 0.425000 0.931931 0.585000
v 0.355000 0.931931 0.655000
v 0.425000 0.931931 0.415000
v 0.355000 0.931931 0.345000
v 0.645000 0.931931 0.345000
v 0.575000 0.931931 0.415000
v 0.575000 0.931931 0.585000
v 0.575000 1.071931 0.585000
v 0.645000 1.071931 0.655000
v 0.425000 1.071931 0.585000
v 0.575000 1.071931 0.585000
v 0.355000 1.071931 0.655000
v 0.425000 1.071931 0.415000
v 0.645000 1.071931 0.345000
v 0.355000 1.071931 0.345000
v 0.575000 1.071931 0.415000
v 0.645000 0.931931 0.655000
v 0.425000 0.931931 0.585000
v 0.575000 0.931931 0.585000
v 0.355000 0.931931 0.655000
v 0.425000 0.931931 0.415000
v 0.645000 0.931931 0.345000
v 0.355000 0.931931 0.345000
v 0.575000 0.931931 0.415000
v 0.924200 1.935845 0.893700
v -0.025200 1.935845 1.020700
v 1.025200 1.935845 1.020700
v 0.075800 1.935845 0.893700
v -0.025200 1.935845 -0.020700
v 0.075800 1.935845 0.106300
v 1.025200 1.935845 -0.020700
v 0.924200 1.935845 0.106300
v 0.924200 1.795845 0.893700
v -0.025200 1.795845 1.020700
v 1.025200 1.795845 1.020700
v 0.075800 1.795845 0.893700
v -0.025200 1.795845 -0.020700
v 0.075800 1.795845 0.106300
v 1.025200 1.795845 -0.020700
v 0.924200 1.795845 0.106300
v 1.025200 1.935845 1.020700
v 0.075800 1.935845 0.893700
v 0.924200 1.935845 0.893700
v -0.025200 1.935845 -0.020700
v -0.025200 1.935845 1.020700
v 1.025200 1.935845 -0.020700
v 0.075800 1.935845 0.106300
v 0.924200 1.935845 0.106300
v 1.025200 1.795845 1.020700
v 0.075800 1.795845 0.893700
v 0.924200 1.795845 0.893700
v -0.025200 1.795845 -0.020700
v -0.025200 1.795845 1.020700
v 1.025200 1.795845 -0.020700
v 0.075800 1.795845 0.106300
v 0.924200 1.795845 0.106300
v -0.066800 2.070000 1.057600
v 0.957800 2.070000 0.921600
v 1.066800 2.070000 1.057600
v -0.066800 2.070000 -0.057600
v 0.042200 2.070000 0.921600
v 1.066800 2.070000 -0.057600
v 0.042200 2.070000 0.078400
v 0.957800 2.070000 0.078400
v -0.066800 1.930000 1.057600
v 0.957800 1.930000 0.921600
v 1.066800 1.930000 1.057600
v -0.066800 1.930000 -0.057600
v 0.042200 1.930000 0.921600
v 1.066800 1.930000 -0.057600
v 0.042200 1.930000 0.078400
v 0.957800 1.930000 0.078400
v 0.901706 1.000000 0.113494
v 0.116554 1.000000 0.893489
v 0.116554 1.000000 0.113493
v 0.000000 1.789540 0.000000
v 1.000000 1.789540 1.000000
v 1.000000 1.789540 0.000000
v 0.901706 1.000000 0.893490
v 0.000000 1.789540 1.000000
v 0.220506 -0.000000 0.888820
v 0.120506 -0.000000 0.788820
v 0.220506 -0.000000 0.788820
v 0.120506 1.000000 0.788820
v 0.220506 1.000000 0.888820
v 0.220506 1.000000 0.788820
v 0.120506 -0.000000 0.888820
v 0.120506 1.000000 0.888820
v 0.220506 -0.000000 0.218498
v 0.120506 -0.000000 0.118498
v 0.220506 -0.000000 0.118498
v 0.120506 1.000000 0.118498
v 0.220506 1.000000 0.218498
v 0.220506 1.000000 0.118498
v 0.120506 -0.000000 0.218498
v 0.120506 1.000000 0.218498
v 0.898486 -0.000000 0.216940
v 0.798486 -0.000000 0.116939
v 0.898486 -0.000000 0.116939
v 0.798486 1.000000 0.116939
v 0.898486 1.000000 0.216940
v 0.898486 1.000000 0.116939
v 0.798486 -0.000000 0.216940
v 0.798486 1.000000 0.216940
v 0.896435 -0.000000 0.889705
v 0.796435 -0.000000 0.789705
v 0.896435 -0.000000 0.789705
v 0.796435 1.000000 0.789705
v 0.896435 1.000000 0.889705
v 0.896435 1.000000 0.789705
v 0.796435 -0.000000 0.889705
v 0.796435 1.000000 0.889705
vt 0.933000 0.911900
vt 0.877700 0.929400
vt 0.860100 0.911900
vt 0.075400 0.913100
vt 0.135700 0.895500
vt 0.153300 0.913100
vt 0.877700 0.892600
vt 0.933000 0.910200
vt 0.860100 0.910200
vt 0.135700 0.893800
vt 0.075400 0.876200
vt 0.153300 0.876200
vt 0.073700 0.913100
vt 0.000800 0.913100
vt 0.018400 0.930700
vt 0.822200 0.633800
vt 0.900100 0.633800
vt 0.882500 0.616200
vt 0.803100 0.911900
vt 0.785500 0.929400
vt 0.858400 0.929400
vt 0.877900 0.807400
vt 0.895500 0.789800
vt 0.817600 0.789800
vt 0.073700 0.911400
vt 0.073700 0.876200
vt 0.000800 0.876200
vt 0.793300 0.000800
vt 0.793300 0.036000
vt 0.871200 0.036000
vt 0.834800 0.752900
vt 0.834800 0.788100
vt 0.907600 0.788100
vt 0.833100 0.788100
vt 0.833100 0.752900
vt 0.755200 0.752900
vt 0.810100 0.540800
vt 0.772400 0.505600
vt 0.810100 0.505600
vt 0.770100 0.366500
vt 0.812800 0.401700
vt 0.770100 0.401700
vt 0.772400 0.404800
vt 0.810100 0.440000
vt 0.772400 0.440000
vt 0.241200 0.644500
vt 0.198500 0.609300
vt 0.241200 0.609300
vt 0.945700 0.057000
vt 0.928100 0.039400
vt 0.890500 0.039400
vt 0.793300 0.074600
vt 0.810900 0.092200
vt 0.853600 0.092200
vt 0.945700 0.058700
vt 0.872900 0.058700
vt 0.890500 0.076300
vt 0.075400 0.932300
vt 0.153300 0.932300
vt 0.135700 0.914800
vt 0.945700 0.018400
vt 0.890500 0.000800
vt 0.928100 0.000800
vt 0.801300 0.717000
vt 0.861600 0.734600
vt 0.818900 0.734600
vt 0.945700 0.020100
vt 0.890500 0.037700
vt 0.872900 0.020100
vt 0.780500 0.910200
vt 0.840800 0.892600
vt 0.858400 0.910200
vt 0.822200 0.670700
vt 0.895100 0.635500
vt 0.895100 0.670700
vt 0.198500 0.456000
vt 0.233700 0.533900
vt 0.198500 0.533900
vt 0.874200 0.680200
vt 0.801300 0.715300
vt 0.801300 0.680200
vt 0.793300 0.072900
vt 0.871200 0.037700
vt 0.871200 0.072900
vt 0.772400 0.503900
vt 0.810100 0.503900
vt 0.810100 0.468800
vt 0.241200 0.535600
vt 0.198500 0.535600
vt 0.198500 0.570800
vt 0.810100 0.542500
vt 0.772400 0.542500
vt 0.772400 0.577700
vt 0.198500 0.607700
vt 0.241200 0.607700
vt 0.241200 0.572500
vt 0.745300 0.604700
vt 0.506800 0.572800
vt 0.770700 0.572800
vt 0.285700 0.919600
vt 0.515500 0.945000
vt 0.253800 0.945000
vt 0.532100 0.472000
vt 0.770700 0.503900
vt 0.506800 0.503900
vt 0.746900 0.918000
vt 0.517200 0.892600
vt 0.778800 0.892600
vt 0.745300 0.571100
vt 0.770700 0.539200
vt 0.506800 0.539200
vt 0.698800 0.855700
vt 0.666900 0.881100
vt 0.928600 0.881100
vt 0.532100 0.505600
vt 0.506800 0.537500
vt 0.770700 0.537500
vt 0.483600 0.918000
vt 0.515500 0.892600
vt 0.253800 0.892600
vt 0.770700 0.143600
vt 0.770700 0.108400
vt 0.506800 0.108400
vt 0.506800 0.366500
vt 0.506800 0.401700
vt 0.768400 0.401700
vt 0.506800 0.145300
vt 0.506800 0.180500
vt 0.770700 0.180500
vt 0.768400 0.291100
vt 0.768400 0.255900
vt 0.506800 0.255900
vt 0.214000 0.800800
vt 0.000800 0.765600
vt 0.214000 0.765600
vt 0.000800 0.839300
vt 0.198700 0.874500
vt 0.000800 0.874500
vt 0.000800 0.802500
vt 0.214000 0.837600
vt 0.000800 0.837600
vt 0.878800 0.854000
vt 0.680900 0.818800
vt 0.878800 0.818800
vt 0.770700 0.470300
vt 0.745300 0.438400
vt 0.532100 0.438400
vt 0.778800 0.973800
vt 0.517200 0.973800
vt 0.549100 0.999200
vt 0.799600 0.717000
vt 0.535700 0.717000
vt 0.561100 0.748900
vt 0.517200 0.945000
vt 0.778800 0.945000
vt 0.746900 0.919600
vt 0.770700 0.436700
vt 0.532100 0.404800
vt 0.745300 0.404800
vt 0.515500 0.973800
vt 0.285700 0.999200
vt 0.253800 0.973800
vt 0.799600 0.680200
vt 0.561100 0.712100
vt 0.535700 0.680200
vt 0.253800 0.972100
vt 0.483600 0.946700
vt 0.515500 0.972100
vt 0.506800 0.217300
vt 0.770700 0.182200
vt 0.770700 0.217300
vt 0.768400 0.292800
vt 0.506800 0.327900
vt 0.506800 0.292800
vt 0.770700 0.219000
vt 0.506800 0.254200
vt 0.506800 0.219000
vt 0.506800 0.364800
vt 0.768400 0.329600
vt 0.768400 0.364800
vt 0.000800 0.763900
vt 0.214000 0.763900
vt 0.214000 0.728700
vt 0.451700 0.855700
vt 0.253800 0.855700
vt 0.253800 0.890900
vt 0.753500 0.752900
vt 0.540300 0.752900
vt 0.540300 0.788100
vt 0.467400 0.890900
vt 0.665200 0.890900
vt 0.665200 0.855700
vt 0.506800 0.070900
vt 0.791600 0.070900
vt 0.764200 0.036700
vt 0.820500 0.651100
vt 0.540300 0.651100
vt 0.574500 0.678500
vt 0.791600 0.000800
vt 0.506800 0.000800
vt 0.534100 0.035000
vt 0.253800 0.817200
vt 0.534000 0.817200
vt 0.499800 0.789800
vt 0.506800 0.106700
vt 0.764200 0.072600
vt 0.791600 0.106700
vt 0.820500 0.606400
vt 0.574500 0.633800
vt 0.540300 0.606400
vt 0.538600 0.753900
vt 0.281200 0.788100
vt 0.253800 0.753900
vt 0.535700 0.817200
vt 0.781700 0.789800
vt 0.815900 0.817200
vt 0.253800 0.641600
vt 0.538600 0.606400
vt 0.538600 0.641600
vt 0.534000 0.680200
vt 0.253800 0.715300
vt 0.253800 0.680200
vt 0.538600 0.643300
vt 0.253800 0.678500
vt 0.253800 0.643300
vt 0.253800 0.752200
vt 0.534000 0.717000
vt 0.534000 0.752200
vt 0.000800 0.690200
vt 0.230900 0.690200
vt 0.230900 0.655000
vt 0.465700 0.818800
vt 0.253800 0.818800
vt 0.253800 0.854000
vt 0.230900 0.691900
vt 0.000800 0.691900
vt 0.000800 0.727000
vt 0.467400 0.854000
vt 0.679200 0.854000
vt 0.679200 0.818800
vt 0.196800 0.653300
vt 0.000800 0.456000
vt 0.196800 0.456000
vt 0.000800 0.252100
vt 0.252100 0.000800
vt 0.252100 0.252100
vt 0.476600 0.404800
vt 0.253800 0.604700
vt 0.280600 0.404800
vt 0.505100 0.403100
vt 0.283100 0.203000
vt 0.480400 0.203000
vt 0.000800 0.253800
vt 0.223600 0.454300
vt 0.027600 0.454300
vt 0.505100 0.000800
vt 0.283100 0.201300
vt 0.253800 0.000800
vt 0.875900 0.705300
vt 0.901000 0.680200
vt 0.901000 0.705300
vt 0.799200 0.466800
vt 0.824300 0.441700
vt 0.824300 0.466800
vt 0.878000 0.359700
vt 0.852800 0.108400
vt 0.878000 0.108400
vt 0.904800 0.612700
vt 0.879600 0.361400
vt 0.904800 0.361400
vt 0.851100 0.359700
vt 0.826000 0.108400
vt 0.851100 0.108400
vt 0.933300 0.614300
vt 0.958400 0.865600
vt 0.933300 0.865600
vt 0.155000 0.901300
vt 0.180100 0.876200
vt 0.180100 0.901300
vt 0.797500 0.466800
vt 0.772400 0.441700
vt 0.797500 0.441700
vt 0.878000 0.612700
vt 0.852800 0.361400
vt 0.878000 0.361400
vt 0.931600 0.612700
vt 0.906500 0.361400
vt 0.931600 0.361400
vt 0.797500 0.359700
vt 0.772400 0.108400
vt 0.797500 0.108400
vt 0.933300 0.361400
vt 0.958400 0.612700
vt 0.933300 0.612700
vt 0.898000 0.103100
vt 0.872900 0.078000
vt 0.898000 0.078000
vt 0.797500 0.604700
vt 0.772400 0.579600
vt 0.797500 0.579600
vt 0.904800 0.359700
vt 0.879600 0.108400
vt 0.904800 0.108400
vt 0.240800 0.980000
vt 0.215700 0.728700
vt 0.240800 0.728700
vt 0.985200 0.612700
vt 0.960100 0.361400
vt 0.985200 0.361400
vt 0.960100 0.108400
vt 0.985200 0.359700
vt 0.960100 0.359700
vt 0.799200 0.604700
vt 0.824300 0.579600
vt 0.824300 0.604700
vt 0.206900 0.876200
vt 0.181800 0.901300
vt 0.181800 0.876200
vt 0.824300 0.359700
vt 0.799200 0.108400
vt 0.824300 0.108400
vt 0.931600 0.359700
vt 0.906500 0.108400
vt 0.931600 0.108400
vt 0.958400 0.359700
vt 0.933300 0.108400
vt 0.958400 0.108400
vt 0.826000 0.361400
vt 0.851100 0.612700
vt 0.826000 0.612700
vt 0.915400 0.929400
vt 0.093000 0.895500
vt 0.915400 0.892600
vt 0.093000 0.893800
vt 0.056100 0.930700
vt 0.839800 0.616200
vt 0.840800 0.911900
vt 0.835200 0.807400
vt 0.000800 0.911400
vt 0.871200 0.000800
vt 0.907600 0.752900
vt 0.755200 0.788100
vt 0.772400 0.540800
vt 0.812800 0.366500
vt 0.810100 0.404800
vt 0.198500 0.644500
vt 0.872900 0.057000
vt 0.871200 0.074600
vt 0.928100 0.076300
vt 0.093000 0.914800
vt 0.872900 0.018400
vt 0.879200 0.717000
vt 0.928100 0.037700
vt 0.798100 0.892600
vt 0.822200 0.635500
vt 0.233700 0.456000
vt 0.874200 0.715300
vt 0.793300 0.037700
vt 0.772400 0.468800
vt 0.241200 0.570800
vt 0.810100 0.577700
vt 0.198500 0.572500
vt 0.532100 0.604700
vt 0.483600 0.919600
vt 0.745300 0.472000
vt 0.549100 0.918000
vt 0.532100 0.571100
vt 0.896700 0.855700
vt 0.745300 0.505600
vt 0.285700 0.918000
vt 0.506800 0.143600
vt 0.768400 0.366500
vt 0.770700 0.145300
vt 0.506800 0.291100
vt 0.000800 0.800800
vt 0.198700 0.839300
vt 0.214000 0.802500
vt 0.680900 0.854000
vt 0.506800 0.470300
vt 0.746900 0.999200
vt 0.774300 0.748900
vt 0.549100 0.919600
vt 0.506800 0.436700
vt 0.483600 0.999200
vt 0.774300 0.712100
vt 0.285700 0.946700
vt 0.506800 0.182200
vt 0.768400 0.327900
vt 0.770700 0.254200
vt 0.506800 0.329600
vt 0.000800 0.728700
vt 0.451700 0.890900
vt 0.753500 0.788100
vt 0.467400 0.855700
vt 0.534100 0.036700
vt 0.786400 0.678500
vt 0.764200 0.035000
vt 0.288000 0.789800
vt 0.534100 0.072600
vt 0.786400 0.633800
vt 0.511300 0.788100
vt 0.569900 0.789800
vt 0.253800 0.606400
vt 0.534000 0.715300
vt 0.538600 0.678500
vt 0.253800 0.717000
vt 0.000800 0.655000
vt 0.465700 0.854000
vt 0.230900 0.727000
vt 0.467400 0.818800
vt 0.000800 0.653300
vt 0.000800 0.000800
vt 0.505100 0.604700
vt 0.253800 0.403100
vt 0.252100 0.253800
vt 0.480400 0.201300
vt 0.875900 0.680200
vt 0.799200 0.441700
vt 0.852800 0.359700
vt 0.879600 0.612700
vt 0.826000 0.359700
vt 0.958400 0.614300
vt 0.155000 0.876200
vt 0.772400 0.466800
vt 0.852800 0.612700
vt 0.906500 0.612700
vt 0.772400 0.359700
vt 0.958400 0.361400
vt 0.872900 0.103100
vt 0.772400 0.604700
vt 0.879600 0.359700
vt 0.215700 0.980000
vt 0.960100 0.612700
vt 0.985200 0.108400
vt 0.799200 0.579600
vt 0.206900 0.901300
vt 0.799200 0.359700
vt 0.906500 0.359700
vt 0.933300 0.359700
vt 0.851100 0.361400
vn 0.5774 0.5774 0.5774
vn 0.0000 1.0000 0.0000
vn -0.5774 0.5774 0.5774
vn -0.5774 0.5774 -0.5773
vn 0.5774 0.5774 -0.5774
vn 0.0000 -1.0000 -0.0000
vn 0.3015 -0.9045 -0.3015
vn 0.3015 -0.9045 0.3015
vn -0.3015 -0.9045 0.3015
vn 0.0000 0.0000 1.0000
vn -1.0000 -0.0000 0.0000
vn 0.0000 0.0000 -1.0000
vn 1.0000 0.0000 0.0000
vn -0.3015 -0.9045 -0.3015
vn 0.1876 0.6946 0.6946
vn -0.6930 0.6930 0.1984
vn 0.6930 0.6930 -0.1984
vn -0.1876 0.6946 -0.6946
vn 0.1374 -0.9397 -0.3132
vn -0.3127 -0.9380 -0.1495
vn 0.3127 -0.9380 0.1495
vn -0.1374 -0.9397 0.3132
vn 0.5774 0.5773 0.5774
vn 0.0600 0.7058 0.7058
vn -0.0600 0.7058 -0.7058
vn -0.7059 0.7059 0.0595
vn 0.7059 0.7059 -0.0595
vn 0.0354 -0.9481 -0.3160
vn -0.3161 -0.9482 -0.0329
vn 0.3161 -0.9482 0.0329
vn -0.0354 -0.9481 0.3160
vn -0.7060 0.7060 0.0552
vn 0.0561 0.7060 0.7060
vn -0.0561 0.7060 -0.7060
vn 0.7060 0.7060 -0.0552
vn -0.3161 -0.9482 -0.0305
vn 0.0331 -0.9482 -0.3161
vn 0.3161 -0.9482 0.0305
vn -0.0331 -0.9482 0.3161
vn 0.9923 -0.1235 -0.0000
vn -0.0000 -0.1337 0.9910
vn -0.9893 -0.1460 -0.0000
vn 0.0000 -0.1423 -0.9898
usemtl Material.001
s 1
f 1/1/1 2/2/2 3/3/3
f 3/4/3 4/5/2 5/6/4
f 4/7/2 6/8/5 5/9/4
f 7/10/2 1/11/1 6/12/5
f 8/13/6 10/14/6 9/15/7
f 10/16/6 12/17/6 11/18/8
f 11/19/8 12/20/6 13/21/6
f 14/22/9 13/23/6 8/24/6
f 8/25/10 1/26/1 3/27/3
f 10/28/11 3/29/3 5/30/4
f 12/31/12 5/32/4 6/33/5
f 13/34/13 6/35/5 1/36/1
f 15/37/14 2/38/12 16/39/12
f 9/40/7 4/41/13 2/42/13
f 11/43/8 7/44/10 4/45/10
f 14/46/9 16/47/11 7/48/11
f 17/49/15 19/50/2 18/51/2
f 20/52/16 18/53/2 21/54/2
f 22/55/17 23/56/18 21/57/2
f 17/58/15 22/59/17 24/60/2
f 25/61/6 26/62/19 27/63/20
f 28/64/6 29/65/21 26/66/19
f 30/67/6 29/68/21 31/69/6
f 25/70/6 32/71/22 30/72/6
f 20/73/16 25/74/10 17/75/15
f 23/76/18 28/77/11 20/78/16
f 22/79/17 31/80/12 23/81/18
f 17/82/15 30/83/13 22/84/17
f 18/85/12 19/86/12 27/87/12
f 21/88/13 18/89/13 26/90/13
f 24/91/10 21/92/10 29/93/10
f 19/94/11 24/95/11 32/96/11
f 33/97/2 34/98/3 35/99/23
f 36/100/2 37/101/4 34/102/3
f 38/103/2 39/104/5 37/105/4
f 40/106/2 35/107/23 39/108/5
f 41/109/14 43/110/6 42/111/6
f 44/112/7 42/113/6 45/114/6
f 46/115/8 45/116/6 47/117/6
f 48/118/9 47/119/6 43/120/6
f 43/121/10 35/122/23 34/123/3
f 42/124/11 34/125/3 37/126/4
f 45/127/12 37/128/4 39/129/5
f 47/130/13 39/131/5 35/132/23
f 41/133/14 36/134/12 33/135/12
f 44/136/7 38/137/13 36/138/13
f 46/139/8 40/140/10 38/141/10
f 48/142/9 33/143/11 40/144/11
f 49/145/24 51/146/2 50/147/2
f 52/148/25 53/149/26 50/150/2
f 54/151/27 52/152/25 55/153/2
f 49/154/24 54/155/27 56/156/2
f 57/157/6 58/158/28 59/159/29
f 60/160/6 58/161/28 61/162/6
f 62/163/6 63/164/30 60/165/6
f 57/166/6 64/167/31 62/168/6
f 53/169/26 57/170/10 49/171/24
f 52/172/25 61/173/11 53/174/26
f 54/175/27 60/176/12 52/177/25
f 49/178/24 62/179/13 54/180/27
f 50/181/12 51/182/12 59/183/12
f 55/184/13 50/185/13 58/186/13
f 56/187/10 55/188/10 63/189/10
f 51/190/11 56/191/11 64/192/11
f 65/193/32 67/194/33 66/195/2
f 68/196/34 65/197/32 69/198/2
f 70/199/35 68/200/34 71/201/2
f 67/202/33 70/203/35 72/204/2
f 73/205/6 74/206/36 75/207/6
f 76/208/6 77/209/37 73/210/6
f 78/211/6 79/212/38 76/213/6
f 75/214/6 80/215/39 78/216/6
f 65/217/32 75/218/10 67/219/33
f 68/220/34 73/221/11 65/222/32
f 70/223/35 76/224/12 68/225/34
f 67/226/33 78/227/13 70/228/35
f 69/229/12 66/230/12 74/231/12
f 71/232/13 69/233/13 77/234/13
f 72/235/10 71/236/10 79/237/10
f 66/238/11 72/239/11 80/240/11
f 81/241/6 82/242/6 83/243/6
f 84/244/2 85/245/2 86/246/2
f 81/247/40 85/248/40 87/249/40
f 85/250/41 82/251/41 87/252/41
f 88/253/42 83/254/42 82/255/42
f 86/256/43 83/257/43 84/258/43
f 89/259/6 90/260/6 91/261/6
f 92/262/2 93/263/2 94/264/2
f 94/265/13 89/266/13 91/267/13
f 93/268/10 95/269/10 89/270/10
f 96/271/11 90/272/11 95/273/11
f 91/274/12 92/275/12 94/276/12
f 97/277/6 98/278/6 99/279/6
f 100/280/2 101/281/2 102/282/2
f 102/283/13 97/284/13 99/285/13
f 101/286/10 103/287/10 97/288/10
f 104/289/11 98/290/11 103/291/11
f 99/292/12 100/293/12 102/294/12
f 105/295/6 106/296/6 107/297/6
f 108/298/2 109/299/2 110/300/2
f 110/301/13 105/302/13 107/303/13
f 109/304/10 111/305/10 105/306/10
f 112/307/11 106/308/11 111/309/11
f 107/310/12 108/311/12 110/312/12
f 113/313/6 114/314/6 115/315/6
f 116/316/2 117/317/2 118/318/2
f 118/319/13 113/320/13 115/321/13
f 117/322/10 119/323/10 113/324/10
f 120/325/11 114/326/11 119/327/11
f 115/328/12 116/329/12 118/330/12
f 1/1/1 16/331/2 2/2/2
f 3/4/3 2/332/2 4/5/2
f 4/7/2 7/333/2 6/8/5
f 7/10/2 16/334/2 1/11/1
f 8/13/6 9/15/7 15/335/14
f 10/16/6 11/18/8 9/336/7
f 11/19/8 13/21/6 14/337/9
f 14/22/9 8/24/6 15/338/14
f 8/25/10 3/27/3 10/339/10
f 10/28/11 5/30/4 12/340/11
f 12/31/12 6/33/5 13/341/12
f 13/34/13 1/36/1 8/342/13
f 15/37/14 9/343/7 2/38/12
f 9/40/7 11/344/8 4/41/13
f 11/43/8 14/345/9 7/44/10
f 14/46/9 15/346/14 16/47/11
f 17/49/15 18/51/2 20/347/16
f 20/52/16 21/54/2 23/348/18
f 22/55/17 21/57/2 24/349/2
f 17/58/15 24/60/2 19/350/2
f 25/61/6 28/351/6 26/62/19
f 28/64/6 31/352/6 29/65/21
f 30/67/6 32/353/22 29/68/21
f 25/70/6 27/354/20 32/71/22
f 20/73/10 28/355/10 25/74/10
f 23/76/11 31/356/11 28/77/11
f 22/79/12 30/357/12 31/80/12
f 17/82/13 25/358/13 30/83/13
f 18/85/12 27/87/20 26/359/19
f 21/88/13 26/90/19 29/360/21
f 24/91/10 29/93/21 32/361/22
f 19/94/11 32/96/22 27/362/20
f 33/97/2 36/363/2 34/98/3
f 36/100/2 38/364/2 37/101/4
f 38/103/2 40/365/2 39/104/5
f 40/106/2 33/366/2 35/107/23
f 41/109/14 42/111/6 44/367/7
f 44/112/7 45/114/6 46/368/8
f 46/115/8 47/117/6 48/369/9
f 48/118/9 43/120/6 41/370/14
f 43/121/10 34/123/3 42/371/10
f 42/124/11 37/126/4 45/372/11
f 45/127/12 39/129/5 47/373/12
f 47/130/13 35/132/23 43/374/13
f 41/133/14 44/375/7 36/134/12
f 44/136/7 46/376/8 38/137/13
f 46/139/8 48/377/9 40/140/10
f 48/142/9 41/378/14 33/143/11
f 49/145/24 50/147/2 53/379/26
f 52/148/25 50/150/2 55/380/2
f 54/151/27 55/153/2 56/381/2
f 49/154/24 56/156/2 51/382/2
f 57/157/6 61/383/6 58/158/28
f 60/160/6 63/384/30 58/161/28
f 62/163/6 64/385/31 63/164/30
f 57/166/6 59/386/29 64/167/31
f 53/169/10 61/387/10 57/170/10
f 52/172/11 60/388/11 61/173/11
f 54/175/12 62/389/12 60/176/12
f 49/178/13 57/390/13 62/179/13
f 50/181/12 59/183/29 58/391/28
f 55/184/13 58/186/28 63/392/30
f 56/187/10 63/189/30 64/393/31
f 51/190/11 64/192/31 59/394/29
f 65/193/32 66/195/2 69/395/2
f 68/196/34 69/198/2 71/396/2
f 70/199/35 71/201/2 72/397/2
f 67/202/33 72/204/2 66/398/2
f 73/205/6 77/399/37 74/206/36
f 76/208/6 79/400/38 77/209/37
f 78/211/6 80/401/39 79/212/38
f 75/214/6 74/402/36 80/215/39
f 65/217/10 73/403/10 75/218/10
f 68/220/11 76/404/11 73/221/11
f 70/223/12 78/405/12 76/224/12
f 67/226/13 75/406/13 78/227/13
f 69/229/12 74/231/36 77/407/37
f 71/232/13 77/234/37 79/408/38
f 72/235/10 79/237/38 80/409/39
f 66/238/11 80/240/39 74/410/36
f 81/241/6 87/411/6 82/242/6
f 84/244/2 88/412/2 85/245/2
f 81/247/40 86/413/40 85/248/40
f 85/250/41 88/414/41 82/251/41
f 88/253/42 84/415/42 83/254/42
f 86/256/43 81/416/43 83/257/43
f 89/259/6 95/417/6 90/260/6
f 92/262/2 96/418/2 93/263/2
f 94/265/13 93/419/13 89/266/13
f 93/268/10 96/420/10 95/269/10
f 96/271/11 92/421/11 90/272/11
f 91/274/12 90/422/12 92/275/12
f 97/277/6 103/423/6 98/278/6
f 100/280/2 104/424/2 101/281/2
f 102/283/13 101/425/13 97/284/13
f 101/286/10 104/426/10 103/287/10
f 104/289/11 100/427/11 98/290/11
f 99/292/12 98/428/12 100/293/12
f 105/295/6 111/429/6 106/296/6
f 108/298/2 112/430/2 109/299/2
f 110/301/13 109/431/13 105/302/13
f 109/304/10 112/432/10 111/305/10
f 112/307/11 108/433/11 106/308/11
f 107/310/12 106/434/12 108/311/12
f 113/313/6 119/435/6 114/314/6
f 116/316/2 120/436/2 117/317/2
f 118/319/13 117/437/13 113/320/13
f 117/322/10 120/438/10 119/323/10
f 120/325/11 116/439/11 114/326/11
f 115/328/12 114/440/12 116/329/12
