# Blender v2.79 (sub 0) OBJ File: '2x.blend'
# www.blender.org
mtllib 2x.mtl
o Sphere.001
v -0.722219 2.256034 -1.585927
v -0.722219 0.968810 -1.585927
v -1.147021 0.992379 -0.674936
v -0.169919 2.256034 -0.910806
v -0.169919 0.968810 -0.910806
v -0.353397 2.256034 -0.058070
v -0.353398 0.968810 -0.058070
v -1.134490 2.256034 0.330154
v -1.134490 0.968810 0.330154
v -1.147021 2.257970 -0.674936
v -1.925019 2.256034 -0.038476
v -1.925019 0.968810 -0.038476
v -2.129699 2.256034 -0.886373
v -2.129699 0.968810 -0.886373
v -1.594403 2.256034 -1.575054
v -1.594403 0.968810 -1.575054
vn -0.0201 -0.9997 0.0165
vn 0.7740 -0.0000 -0.6332
vn 0.0017 1.0000 -0.0014
vn -0.0254 -0.9997 -0.0055
vn 0.9776 -0.0000 0.2104
vn 0.0021 1.0000 0.0004
vn -0.0116 -0.9997 -0.0233
vn 0.4451 -0.0000 0.8955
vn 0.0010 1.0000 0.0019
vn 0.0110 -0.9997 -0.0236
vn -0.4226 -0.0000 0.9063
vn -0.0009 1.0000 0.0019
vn 0.0253 -0.9997 -0.0061
vn -0.9721 -0.0000 0.2347
vn -0.0021 1.0000 0.0005
vn 0.0205 -0.9997 0.0160
vn -0.7895 0.0000 -0.6137
vn -0.0017 1.0000 -0.0013
vn 0.0003 -0.9997 0.0260
vn -0.0125 0.0000 -0.9999
vn -0.0000 1.0000 -0.0021
vn 0.9776 -0.0000 0.2103
usemtl None
s off
f 3//1 2//1 5//1
f 1//2 5//2 2//2
f 1//3 10//3 4//3
f 3//4 5//4 7//4
f 4//5 7//5 5//5
f 4//6 10//6 6//6
f 3//7 7//7 9//7
f 7//8 8//8 9//8
f 6//9 10//9 8//9
f 3//10 9//10 12//10
f 8//11 12//11 9//11
f 8//12 10//12 11//12
f 3//13 12//13 14//13
f 11//14 14//14 12//14
f 11//15 10//15 13//15
f 3//16 14//16 16//16
f 14//17 15//17 16//17
f 13//18 10//18 15//18
f 3//19 16//19 2//19
f 15//20 2//20 16//20
f 15//21 10//21 1//21
f 1//2 4//2 5//2
f 4//22 6//22 7//22
f 7//8 6//8 8//8
f 8//11 11//11 12//11
f 11//14 13//14 14//14
f 14//17 13//17 15//17
f 15//20 1//20 2//20
o Sphere
v -0.893436 1.874938 -3.113915
v -0.893436 1.001479 -3.113915
v -1.149849 1.015705 -2.564038
v -0.560066 1.874938 -2.706410
v -0.560067 1.001479 -2.706410
v -0.670815 1.874938 -2.191695
v -0.670815 1.001479 -2.191695
v -1.142285 1.874938 -1.957362
v -1.142285 1.001479 -1.957362
v -1.149849 1.876106 -2.564038
v -1.619451 1.874938 -2.179868
v -1.619451 1.001479 -2.179868
v -1.742997 1.874938 -2.691662
v -1.742997 1.001479 -2.691662
v -1.419890 1.874938 -3.107352
v -1.419890 1.001479 -3.107352
vn -0.0201 -0.9997 0.0165
vn 0.7740 0.0000 -0.6332
vn 0.0017 1.0000 -0.0014
vn -0.0254 -0.9997 -0.0055
vn 0.9776 -0.0000 0.2103
vn 0.0021 1.0000 0.0004
vn -0.0116 -0.9997 -0.0233
vn 0.4451 -0.0000 0.8955
vn 0.0010 1.0000 0.0019
vn 0.0110 -0.9997 -0.0236
vn -0.4226 0.0000 0.9063
vn -0.0009 1.0000 0.0019
vn 0.0253 -0.9997 -0.0061
vn -0.9721 0.0000 0.2347
vn -0.0021 1.0000 0.0005
vn 0.0205 -0.9997 0.0160
vn -0.7895 0.0000 -0.6137
vn -0.0017 1.0000 -0.0013
vn 0.0003 -0.9997 0.0260
vn -0.0125 0.0000 -0.9999
vn -0.0000 1.0000 -0.0021
usemtl None
s off
f 19//23 18//23 21//23
f 17//24 21//24 18//24
f 17//25 26//25 20//25
f 19//26 21//26 23//26
f 20//27 23//27 21//27
f 20//28 26//28 22//28
f 19//29 23//29 25//29
f 22//30 25//30 23//30
f 22//31 26//31 24//31
f 19//32 25//32 28//32
f 24//33 28//33 25//33
f 24//34 26//34 27//34
f 19//35 28//35 30//35
f 27//36 30//36 28//36
f 27//37 26//37 29//37
f 19//38 30//38 32//38
f 29//39 32//39 30//39
f 29//40 26//40 31//40
f 19//41 32//41 18//41
f 31//42 18//42 32//42
f 31//43 26//43 17//43
f 17//24 20//24 21//24
f 20//27 22//27 23//27
f 22//30 24//30 25//30
f 24//33 27//33 28//33
f 27//36 29//36 30//36
f 29//39 31//39 32//39
f 31//42 17//42 18//42
o Cube.002_Cube.005
v -2.186233 -2.564697 0.699495
v -2.186233 -1.611283 0.699495
v -2.186233 -2.564697 -3.455850
v -2.186233 -1.611283 -3.455850
v -0.186233 -2.564697 0.699495
v -0.186233 -1.611283 0.699495
v -0.186233 -2.564697 -3.455850
v -0.186233 -1.611283 -3.455850
vn -1.0000 0.0000 0.0000
vn 0.0000 0.0000 -1.0000
vn 1.0000 0.0000 0.0000
vn 0.0000 0.0000 1.0000
vn 0.0000 -1.0000 0.0000
vn 0.0000 1.0000 0.0000
usemtl None
s off
f 34//44 35//44 33//44
f 36//45 39//45 35//45
f 40//46 37//46 39//46
f 38//47 33//47 37//47
f 39//48 33//48 35//48
f 36//49 38//49 40//49
f 34//44 36//44 35//44
f 36//45 40//45 39//45
f 40//46 38//46 37//46
f 38//47 34//47 33//47
f 39//48 37//48 33//48
f 36//49 34//49 38//49
o Beam
v 0.250000 1.055142 -4.759906
v -2.559097 1.055142 -4.759906
v -2.559097 -1.564858 -4.759906
v 0.250000 -1.564858 -4.759906
v 0.150000 0.955142 -4.759906
v -2.459097 0.955142 -4.759906
v -2.459097 -1.464858 -4.759906
v 0.150000 -1.464858 -4.759906
v 0.250000 1.345284 4.687946
v -2.559097 1.345284 4.687946
v -2.559097 -1.823914 4.687946
v 0.250000 -1.823914 4.687946
v 0.150000 1.245284 4.687946
v -2.459097 1.245284 4.687946
v -2.459097 -1.723914 4.687946
v 0.150000 -1.723914 4.687946
v 0.150000 -1.464858 3.465526
v 0.150000 0.955142 3.465526
v -2.459097 0.955142 3.465526
v -2.459097 -1.464858 3.465526
v 0.150000 -1.309425 2.367421
v 0.150000 0.799708 2.367421
v -2.459097 0.799708 2.367421
v -2.459097 -1.309425 2.367421
v -2.559097 1.118138 2.352757
v 0.250000 1.118138 2.352757
v -2.559097 -1.604450 2.352757
v 0.250000 -1.604450 2.352757
v -2.559097 1.164356 -1.203574
v 0.250000 1.164356 -1.203574
v -2.559097 -1.662371 -1.203574
v 0.250000 -1.662371 -1.203574
v -2.559097 1.307265 3.449939
v 0.250000 1.307265 3.449939
v -2.559097 -1.789968 3.449939
v 0.250000 -1.789968 3.449939
vn 0.0000 0.0000 1.0000
vn 0.0000 0.9995 -0.0307
vn -1.0000 0.0000 0.0000
vn 0.0000 -0.9996 -0.0274
vn 1.0000 0.0000 0.0000
vn 0.0000 0.9730 -0.2309
vn 0.0000 -0.9783 -0.2073
vn 0.0000 -0.9901 -0.1401
vn 0.0000 0.9901 -0.1401
vn 0.0000 0.9998 0.0218
vn 0.0000 -0.9998 0.0218
vn 0.0000 -0.9999 0.0163
vn 0.0000 0.9999 0.0130
vn 0.0000 -0.9860 -0.1667
vn 0.0000 0.9855 -0.1699
usemtl None
s off
f 42//50 45//50 41//50
f 43//50 46//50 42//50
f 44//50 47//50 43//50
f 41//50 48//50 44//50
f 50//50 53//50 49//50
f 51//50 54//50 50//50
f 52//50 55//50 51//50
f 49//50 56//50 52//50
f 73//51 49//51 74//51
f 73//52 51//52 50//52
f 76//53 51//53 75//53
f 74//54 52//54 76//54
f 59//55 53//55 58//55
f 59//52 55//52 54//52
f 57//56 55//56 60//56
f 58//54 56//54 57//54
f 62//54 57//54 61//54
f 61//57 60//57 64//57
f 64//52 59//52 63//52
f 63//58 58//58 62//58
f 46//59 62//59 45//59
f 47//52 63//52 46//52
f 48//60 64//60 47//60
f 45//54 61//54 48//54
f 70//54 68//54 72//54
f 72//61 67//61 71//61
f 69//52 67//52 65//52
f 69//62 66//62 70//62
f 42//51 70//51 41//51
f 42//52 71//52 69//52
f 44//53 71//53 43//53
f 41//54 72//54 44//54
f 66//54 76//54 68//54
f 68//63 75//63 67//63
f 65//52 75//52 73//52
f 65//64 74//64 66//64
f 42//50 46//50 45//50
f 43//50 47//50 46//50
f 44//50 48//50 47//50
f 41//50 45//50 48//50
f 50//50 54//50 53//50
f 51//50 55//50 54//50
f 52//50 56//50 55//50
f 49//50 53//50 56//50
f 73//51 50//51 49//51
f 73//52 75//52 51//52
f 76//53 52//53 51//53
f 74//54 49//54 52//54
f 59//55 54//55 53//55
f 59//52 60//52 55//52
f 57//56 56//56 55//56
f 58//54 53//54 56//54
f 62//54 58//54 57//54
f 61//57 57//57 60//57
f 64//52 60//52 59//52
f 63//58 59//58 58//58
f 46//59 63//59 62//59
f 47//52 64//52 63//52
f 48//60 61//60 64//60
f 45//54 62//54 61//54
f 70//54 66//54 68//54
f 72//61 68//61 67//61
f 69//52 71//52 67//52
f 69//62 65//62 66//62
f 42//51 69//51 70//51
f 42//52 43//52 71//52
f 44//53 72//53 71//53
f 41//54 70//54 72//54
f 66//54 74//54 76//54
f 68//63 76//63 75//63
f 65//52 67//52 75//52
f 65//64 73//64 74//64
