# Blender v2.79 (sub 0) OBJ File: 'Acog.blend'
# www.blender.org
mtllib acog.mtl
o Cylinder
v 0.000000 1.091368 0.293006
v 0.000000 1.668791 0.293006
v 0.441673 1.091368 0.548006
v 0.441673 1.668791 0.548006
v 0.441673 1.091368 1.058006
v 0.441673 1.668791 1.058006
v -0.000000 1.091368 1.313006
v -0.000000 1.668791 1.313006
v -0.441673 1.091368 1.058006
v -0.441673 1.668791 1.058006
v -0.441673 1.091368 0.548006
v -0.441673 1.668791 0.548006
v -1.000000 -1.822972 0.874992
v -1.000000 -0.791787 0.874992
v -1.000000 -1.822972 -3.385577
v -1.000000 -0.791787 -3.385577
v 1.000000 -1.822972 0.874992
v 1.000000 -0.791787 0.874992
v 1.000000 -1.822972 -3.385577
v 1.000000 -0.791787 -3.385577
v -1.000000 -1.286335 0.874992
v -1.000000 -1.286335 -3.385577
v 1.000000 -1.286335 -3.385577
v 1.000000 -1.286335 0.874992
v -1.000000 -1.286335 -4.427314
v -1.000000 -1.822972 -4.427314
v 1.000000 -1.822972 -4.427314
v 1.000000 -1.286335 -4.427314
v -0.851529 -0.689727 0.107073
v -0.851529 0.988506 0.107073
v 0.826704 -0.689727 0.107073
v 0.826704 0.988506 0.107073
v -1.000000 -0.791653 4.416896
v -1.000000 1.104174 4.416896
v -1.000000 -0.791653 -3.375160
v -1.000000 2.062572 -4.364809
v 1.000000 -0.791653 4.416896
v 1.000000 1.104174 4.416896
v 1.000000 -0.791653 -3.375160
v 1.000000 2.062572 -4.364809
v -1.000000 -0.791653 0.119910
v -1.000000 1.104174 0.119910
v 1.000000 -0.791653 0.119910
v 1.000000 1.104174 0.119910
v -1.000000 1.848604 -3.363570
v 1.000000 -0.791653 -3.363570
v -1.000000 -0.791653 -3.363569
v 1.000000 1.848604 -3.363569
v -0.851529 0.988506 4.416896
v -0.851529 -0.689727 4.416896
v 0.826704 -0.689727 4.416896
v 0.826704 0.988506 4.416896
v 0.826704 -0.689727 -3.410500
v 0.826704 1.949953 -4.325760
v -0.851529 1.949953 -4.325760
v 0.826704 -0.073431 -3.624190
v -0.851529 -0.689727 -3.410500
v -0.851529 -0.579768 -3.448627
vt 0.968538 0.081369
vt 0.945516 0.055304
vt 0.968538 0.055304
vt 0.953397 0.876936
vt 0.930375 0.850870
vt 0.953397 0.850870
vt 0.914812 0.312111
vt 0.891791 0.286045
vt 0.914812 0.286045
vt 0.965993 0.657652
vt 0.942971 0.631586
vt 0.965993 0.631586
vt 0.930701 0.971692
vt 0.890826 0.948670
vt 0.910764 0.937159
vt 0.981522 0.543812
vt 0.955457 0.566834
vt 0.955457 0.543812
vt 0.981062 0.339693
vt 0.954997 0.362715
vt 0.954997 0.339693
vt 0.956566 0.261368
vt 0.922033 0.241430
vt 0.968077 0.241430
vt 0.157645 0.810138
vt 0.349971 0.832462
vt 0.157645 0.832462
vt 0.449524 0.800454
vt 0.539806 0.822778
vt 0.449524 0.822778
vt 0.745539 0.673851
vt 0.553213 0.651526
vt 0.745539 0.651526
vt 0.539806 0.799695
vt 0.449524 0.777371
vt 0.539806 0.777371
vt 0.670752 0.430772
vt 0.478426 0.340490
vt 0.670752 0.340490
vt 0.349971 0.641824
vt 0.157645 0.551543
vt 0.349971 0.551543
vt 0.659748 0.490828
vt 0.569466 0.466603
vt 0.659748 0.466603
vt 0.746119 0.816120
vt 0.553792 0.791896
vt 0.746119 0.791896
vt 0.748520 0.634030
vt 0.795545 0.658254
vt 0.748520 0.658254
vt 0.553792 0.766914
vt 0.746119 0.791138
vt 0.553792 0.791138
vt 0.449524 0.752389
vt 0.539806 0.776613
vt 0.449524 0.776613
vt 0.746877 0.766914
vt 0.793902 0.791138
vt 0.746877 0.791138
vt 0.820304 0.255187
vt 0.773279 0.164905
vt 0.820304 0.164905
vt 0.423527 0.281539
vt 0.333245 0.328564
vt 0.333245 0.281539
vt 0.318187 0.345531
vt 0.357726 0.459744
vt 0.157645 0.416247
vt 0.553213 0.574253
vt 0.747762 0.498496
vt 0.747762 0.574253
vt 0.553213 0.650768
vt 0.747762 0.575011
vt 0.747762 0.650768
vt 0.358484 0.751631
vt 0.553034 0.675874
vt 0.553034 0.751631
vt 0.801433 0.451721
vt 0.762550 0.341151
vt 0.764486 0.340490
vt 0.569466 0.465845
vt 0.651926 0.460975
vt 0.659748 0.465845
vt 0.685221 0.247176
vt 0.491251 0.161597
vt 0.685221 0.161597
vt 0.805630 0.675874
vt 0.797807 0.680475
vt 0.715348 0.675874
vt 0.552455 0.588778
vt 0.358484 0.498496
vt 0.552455 0.498496
vt 0.351615 0.550784
vt 0.157645 0.460503
vt 0.351615 0.460503
vt 0.714590 0.766156
vt 0.553792 0.675874
vt 0.714590 0.675874
vt 0.314892 0.809380
vt 0.157645 0.719098
vt 0.314892 0.719098
vt 0.490493 0.161597
vt 0.333245 0.247176
vt 0.333245 0.161597
vt 0.358484 0.589536
vt 0.552455 0.675116
vt 0.358484 0.675116
vt 0.787403 0.499166
vt 0.748520 0.609737
vt 0.785470 0.498496
vt 0.385267 0.329322
vt 0.333252 0.330230
vt 0.333245 0.329322
vt 0.568708 0.477748
vt 0.478426 0.431530
vt 0.568708 0.431530
vt 0.444064 0.340490
vt 0.358484 0.497738
vt 0.358484 0.340490
vt 0.772521 0.323691
vt 0.696764 0.164905
vt 0.772521 0.164905
vt 0.352194 0.642582
vt 0.157645 0.718340
vt 0.157645 0.642583
vt 0.491251 0.323691
vt 0.696006 0.247934
vt 0.696006 0.323691
vt 0.755089 0.471480
vt 0.761791 0.476861
vt 0.679333 0.471480
vt 0.157645 0.268156
vt 0.332487 0.161597
vt 0.332487 0.258269
vt 0.440944 0.832747
vt 0.448766 0.837968
vt 0.358484 0.837968
vt 0.945516 0.081369
vt 0.930375 0.876936
vt 0.891791 0.312111
vt 0.942971 0.657652
vt 0.930701 0.948670
vt 0.910764 0.983203
vt 0.890826 0.971692
vt 0.981522 0.566834
vt 0.981062 0.362715
vt 0.956566 0.221493
vt 0.933544 0.261368
vt 0.933544 0.221493
vt 0.349971 0.810138
vt 0.539806 0.800454
vt 0.553213 0.673851
vt 0.449524 0.799695
vt 0.478426 0.430772
vt 0.157645 0.641824
vt 0.569466 0.490828
vt 0.553792 0.816120
vt 0.795545 0.634030
vt 0.746119 0.766914
vt 0.539806 0.752389
vt 0.793902 0.766914
vt 0.773279 0.255187
vt 0.423527 0.328564
vt 0.157681 0.340490
vt 0.316468 0.340567
vt 0.553213 0.498496
vt 0.553213 0.575011
vt 0.358484 0.675874
vt 0.762550 0.475257
vt 0.576168 0.455722
vt 0.576168 0.460976
vt 0.651926 0.431530
vt 0.491251 0.247176
vt 0.805630 0.761453
vt 0.797808 0.756232
vt 0.722051 0.680475
vt 0.358484 0.588778
vt 0.157645 0.550784
vt 0.553792 0.766156
vt 0.157645 0.809380
vt 0.490493 0.280781
vt 0.552455 0.589536
vt 0.787403 0.633272
vt 0.385274 0.330230
vt 0.478426 0.477748
vt 0.477668 0.497738
vt 0.696764 0.323691
vt 0.352194 0.718340
vt 0.491251 0.247934
vt 0.671510 0.476861
vt 0.671510 0.340494
vt 0.679333 0.374809
vt 0.755089 0.350614
vt 0.761792 0.340490
vt 0.332487 0.287714
vt 0.182463 0.339732
vt 0.358484 0.752389
vt 0.365186 0.832747
vt 0.365187 0.756990
vn 0.5000 0.0000 -0.8660
vn 1.0000 0.0000 0.0000
vn 0.5000 0.0000 0.8660
vn -0.5000 0.0000 0.8660
vn 0.0000 1.0000 0.0000
vn -1.0000 0.0000 0.0000
vn -0.5000 0.0000 -0.8660
vn 0.0000 -1.0000 -0.0000
vn 0.0000 0.0000 -1.0000
vn 0.0000 0.0000 1.0000
vn 0.0000 -0.3276 -0.9448
vn -0.0000 0.9779 0.2090
vn 0.0000 -0.9773 -0.2120
usemtl Material.001
s off
f 2/1/1 3/2/1 1/3/1
f 4/4/2 5/5/2 3/6/2
f 6/7/3 7/8/3 5/9/3
f 8/10/4 9/11/4 7/12/4
f 2/13/5 8/14/5 6/15/5
f 10/16/6 11/17/6 9/18/6
f 12/19/7 1/20/7 11/21/7
f 3/22/8 7/23/8 1/24/8
f 14/25/6 22/26/6 21/27/6
f 16/28/9 23/29/9 22/30/9
f 20/31/2 24/32/2 23/33/2
f 18/34/10 21/35/10 24/36/10
f 19/37/8 13/38/8 15/39/8
f 16/40/5 18/41/5 20/42/5
f 24/43/10 13/44/10 17/45/10
f 23/46/2 17/47/2 19/48/2
f 22/49/6 26/50/6 15/51/6
f 21/52/6 15/53/6 13/54/6
f 25/55/9 27/56/9 26/57/9
f 19/58/2 28/59/2 23/60/2
f 15/61/8 27/62/8 19/63/8
f 23/64/5 25/65/5 22/66/5
f 58/67/2 55/68/2 30/69/2
f 51/70/6 32/71/6 31/72/6
f 50/73/5 31/74/5 29/75/5
f 52/76/8 30/77/8 32/78/8
f 45/79/6 35/80/6 47/81/6
f 35/82/11 53/83/11 39/84/11
f 44/85/2 37/86/2 43/87/2
f 37/88/10 51/89/10 33/90/10
f 43/91/8 33/92/8 41/93/8
f 42/94/5 38/95/5 44/96/5
f 45/97/12 44/98/12 48/99/12
f 46/100/8 41/101/8 47/102/8
f 46/103/2 44/104/2 43/105/2
f 34/106/6 41/107/6 33/108/6
f 39/109/2 48/110/2 46/111/2
f 39/112/8 47/113/8 35/114/8
f 40/115/12 45/116/12 48/117/12
f 42/118/6 47/119/6 41/120/6
f 29/121/5 53/122/5 57/123/5
f 29/124/2 49/125/2 50/126/2
f 32/127/13 55/128/13 54/129/13
f 55/130/11 36/131/11 54/132/11
f 32/133/6 54/134/6 56/135/6
f 52/136/10 38/137/10 34/138/10
f 2/1/1 4/139/1 3/2/1
f 4/4/2 6/140/2 5/5/2
f 6/7/3 8/141/3 7/8/3
f 8/10/4 10/142/4 9/11/4
f 6/15/5 4/143/5 2/13/5
f 2/13/5 12/144/5 10/145/5
f 10/145/5 8/14/5 2/13/5
f 10/16/6 12/146/6 11/17/6
f 12/19/7 2/147/7 1/20/7
f 11/148/8 1/24/8 7/23/8
f 3/22/8 5/149/8 7/23/8
f 7/23/8 9/150/8 11/148/8
f 14/25/6 16/151/6 22/26/6
f 16/28/9 20/152/9 23/29/9
f 20/31/2 18/153/2 24/32/2
f 18/34/10 14/154/10 21/35/10
f 19/37/8 17/155/8 13/38/8
f 16/40/5 14/156/5 18/41/5
f 24/43/10 21/157/10 13/44/10
f 23/46/2 24/158/2 17/47/2
f 22/49/6 25/159/6 26/50/6
f 21/52/6 22/160/6 15/53/6
f 25/55/9 28/161/9 27/56/9
f 19/58/2 27/162/2 28/59/2
f 15/61/8 26/163/8 27/62/8
f 23/64/5 28/164/5 25/65/5
f 30/69/2 29/165/2 58/67/2
f 57/166/2 58/67/2 29/165/2
f 51/70/6 52/167/6 32/71/6
f 50/73/5 51/168/5 31/74/5
f 52/76/8 49/169/8 30/77/8
f 45/79/6 36/170/6 35/80/6
f 35/82/11 58/171/11 57/172/11
f 53/83/11 56/173/11 39/84/11
f 35/82/11 57/172/11 53/83/11
f 44/85/2 38/174/2 37/86/2
f 37/88/10 38/175/10 52/176/10
f 51/89/10 50/177/10 33/90/10
f 37/88/10 52/176/10 51/89/10
f 43/91/8 37/178/8 33/92/8
f 42/94/5 34/179/5 38/95/5
f 45/97/12 42/180/12 44/98/12
f 46/100/8 43/181/8 41/101/8
f 46/103/2 48/182/2 44/104/2
f 34/106/6 42/183/6 41/107/6
f 39/109/2 40/184/2 48/110/2
f 39/112/8 46/185/8 47/113/8
f 40/115/12 36/186/12 45/116/12
f 42/118/6 45/187/6 47/119/6
f 29/121/5 31/188/5 53/122/5
f 29/124/2 30/189/2 49/125/2
f 32/127/13 30/190/13 55/128/13
f 40/191/11 39/192/11 56/193/11
f 40/191/11 56/193/11 54/132/11
f 58/194/11 35/195/11 36/131/11
f 40/191/11 54/132/11 36/131/11
f 55/130/11 58/194/11 36/131/11
f 56/135/6 53/196/6 32/133/6
f 31/197/6 32/133/6 53/196/6
f 34/138/10 33/198/10 49/199/10
f 49/199/10 52/136/10 34/138/10
f 33/198/10 50/200/10 49/199/10
