# Blender v2.79 (sub 0) OBJ File: 'holo_graphic.blend'
# www.blender.org
mtllib holographic.mtl
o Cube_Cube.001
v -1.345882 0.275183 1.302587
v -1.345882 3.066903 0.927562
v -1.345882 0.264766 -1.280786
v -1.345882 3.046069 -0.759917
v 0.654118 0.275183 1.302587
v 0.654118 3.066903 0.927562
v 0.654118 0.264766 -1.280786
v 0.654118 3.046069 -0.759917
v -1.345882 1.352010 1.157931
v -1.345882 1.337574 -1.267388
v 0.654118 1.337574 -1.267388
v 0.654118 1.352010 1.157931
v -1.345882 1.636710 1.268793
v -1.345882 1.828782 -0.861052
v 0.654118 1.828782 -0.861052
v 0.654118 1.636710 1.268793
v 0.654118 1.352010 1.157931
v 0.654118 0.275183 1.302587
v -1.345882 0.275183 1.302587
v -1.345882 1.352010 1.157931
v 0.654118 1.502293 3.037898
v 0.654118 1.300931 3.239557
v -1.345882 1.300931 3.239557
v -1.345882 1.502293 3.037898
v 0.654118 1.300931 3.239557
v 0.654118 0.286609 3.248786
v -1.345882 0.286609 3.248786
v -1.345882 1.300931 3.239557
v -0.993645 2.835409 -0.777419
v -0.993645 2.835409 0.982794
v -0.993645 1.804953 -0.880763
v -0.993645 1.804953 1.228652
v 0.314074 1.804953 -0.880763
v 0.314074 1.804953 1.228652
v 0.314074 2.835409 -0.777419
v 0.314074 2.835409 0.982794
v -0.993645 1.828782 -0.861052
v 0.314074 1.828782 -0.861052
vt 0.554895 0.000457
vt 0.739026 0.151926
vt 0.504645 0.153577
vt 0.458731 0.491329
vt 0.458731 0.220580
vt 0.624113 0.446652
vt 0.691894 0.516175
vt 0.494193 0.649447
vt 0.458731 0.492242
vt 0.219665 0.930976
vt 0.039063 0.949934
vt 0.000457 0.930976
vt 0.283609 0.219665
vt 0.000457 0.000458
vt 0.283608 0.000457
vt 0.220586 0.625680
vt 0.439788 0.440702
vt 0.439795 0.625672
vt 0.505810 0.218548
vt 0.284522 0.214686
vt 0.505810 0.214686
vt 0.741883 0.650361
vt 0.474111 0.768450
vt 0.458731 0.650362
vt 0.000457 0.780321
vt 0.219665 0.897915
vt 0.000457 0.897915
vt 0.474109 0.769363
vt 0.741883 0.887450
vt 0.458731 0.887451
vt 0.693496 0.634667
vt 0.803986 0.421353
vt 0.811660 0.649448
vt 0.862230 0.418398
vt 0.641255 0.364826
vt 0.907086 0.364825
vt 0.717460 0.891755
vt 0.860792 0.891755
vt 0.898062 0.958237
vt 0.513944 0.186660
vt 0.739032 0.154491
vt 0.778553 0.212112
vt 0.457818 0.439789
vt 0.229594 0.220580
vt 0.457818 0.220580
vt 0.440708 0.560917
vt 0.442806 0.440702
vt 0.442806 0.560917
vt 0.506723 0.214686
vt 0.728011 0.218548
vt 0.506723 0.218548
vt 0.445817 0.440702
vt 0.443719 0.560898
vt 0.443719 0.440702
vt 0.219665 0.930063
vt 0.000457 0.898828
vt 0.219665 0.898828
vt 0.677940 0.999543
vt 0.458731 0.888365
vt 0.677940 0.888365
vt 0.433894 0.788662
vt 0.220938 0.899840
vt 0.220579 0.788662
vt 0.968164 0.115267
vt 0.762577 0.136788
vt 0.739940 0.115267
vt 0.000457 0.635163
vt 0.219665 0.440702
vt 0.219666 0.635163
vt 0.228681 0.439789
vt 0.000457 0.220580
vt 0.228681 0.220580
vt 0.448802 0.939184
vt 0.243216 0.917663
vt 0.437421 0.907691
vt 0.503731 0.000457
vt 0.284522 0.213772
vt 0.284522 0.000457
vt 0.766103 0.001637
vt 0.958363 0.000457
vt 0.968173 0.110350
vt 0.973224 0.650361
vt 0.971051 0.654345
vt 0.742796 0.650361
vt 0.402517 0.761664
vt 0.439788 0.787749
vt 0.259185 0.761664
vt 0.628919 0.363912
vt 0.860120 0.220580
vt 0.860120 0.363912
vt 0.000457 0.779408
vt 0.193384 0.636076
vt 0.193384 0.779408
vt 0.739026 0.018046
vt 0.624088 0.443645
vt 0.624088 0.491329
vt 0.624088 0.220580
vt 0.628006 0.446620
vt 0.627981 0.443613
vt 0.679163 0.649448
vt 0.182395 0.949934
vt 0.000458 0.219667
vt 0.220579 0.440711
vt 0.284522 0.218548
vt 0.739941 0.767938
vt 0.219665 0.780321
vt 0.739939 0.769872
vt 0.692807 0.421353
vt 0.628919 0.395957
vt 0.678853 0.958237
vt 0.678853 0.888365
vt 0.717460 0.888365
vt 0.860792 0.888365
vt 0.898062 0.888365
vt 0.504645 0.154491
vt 0.229594 0.439789
vt 0.440708 0.440702
vt 0.728011 0.214686
vt 0.445817 0.560898
vt 0.000457 0.930063
vt 0.458731 0.999543
vt 0.449056 0.906778
vt 0.956782 0.146760
vt 0.000457 0.440702
vt 0.000457 0.439789
vt 0.220579 0.939184
vt 0.503731 0.213772
vt 0.971485 0.114354
vt 0.739940 0.114354
vt 0.768971 0.763086
vt 0.961250 0.764250
vt 0.220579 0.787749
vt 0.220579 0.626593
vt 0.259185 0.645551
vt 0.402517 0.645551
vt 0.439788 0.626593
vt 0.628919 0.220580
vt 0.000457 0.636076
vn -1.0000 0.0000 0.0000
vn 0.0000 0.0828 -0.9966
vn 1.0000 0.0000 0.0000
vn 0.0000 0.2321 0.9727
vn 0.0000 -1.0000 0.0040
vn 0.0000 0.9999 -0.0123
vn 0.0000 0.0000 1.0000
vn 0.0000 0.0125 -0.9999
vn 0.0000 0.6374 -0.7705
vn 0.0000 -0.9997 -0.0245
vn 0.0000 0.7076 0.7066
vn 0.0000 0.0091 1.0000
vn 0.0000 0.9971 0.0758
vn 0.0000 0.9997 0.0245
vn 0.0000 -1.0000 0.0059
vn 0.0000 1.0000 0.0000
vn 0.0000 -1.0000 0.0000
usemtl Material.001
s off
f 2/1/1 14/2/1 13/3/1
f 4/4/2 8/5/2 29/6/2
f 15/7/3 6/8/3 16/9/3
f 16/10/4 32/11/4 13/12/4
f 7/13/5 1/14/5 3/15/5
f 4/16/6 6/17/6 8/18/6
f 12/19/7 20/20/7 17/21/7
f 7/22/3 12/23/3 5/24/3
f 10/25/8 7/26/8 3/27/8
f 9/28/1 3/29/1 1/30/1
f 19/31/1 28/32/1 20/33/1
f 15/34/3 12/35/3 11/36/3
f 31/37/9 33/38/9 11/39/9
f 9/40/1 14/41/1 10/42/1
f 12/43/10 23/44/10 9/45/10
f 9/46/7 19/47/7 20/48/7
f 1/49/7 18/50/7 19/51/7
f 5/52/7 17/53/7 18/54/7
f 21/55/11 23/56/11 22/57/11
f 25/58/12 27/59/12 26/60/12
f 18/61/3 25/62/3 26/63/3
f 12/64/3 21/65/3 22/66/3
f 13/67/13 21/68/13 16/69/13
f 20/70/14 25/71/14 17/72/14
f 9/73/1 24/74/1 13/75/1
f 18/76/15 27/77/15 19/78/15
f 36/79/1 35/80/1 38/81/1
f 31/82/3 37/83/3 32/84/3
f 36/85/4 6/86/4 30/87/4
f 32/88/16 33/89/16 31/90/16
f 36/91/17 29/92/17 35/93/17
f 2/1/1 4/94/1 14/2/1
f 37/95/2 14/96/2 29/6/2
f 8/5/2 15/97/2 35/98/2
f 15/97/2 38/99/2 35/98/2
f 29/6/2 14/96/2 4/4/2
f 8/5/2 35/98/2 29/6/2
f 15/7/3 8/100/3 6/8/3
f 16/10/4 34/101/4 32/11/4
f 7/13/5 5/102/5 1/14/5
f 4/16/6 2/103/6 6/17/6
f 12/19/7 9/104/7 20/20/7
f 7/22/3 11/105/3 12/23/3
f 10/25/8 11/106/8 7/26/8
f 9/28/1 10/107/1 3/29/1
f 19/31/1 27/108/1 28/32/1
f 15/34/3 16/109/3 12/35/3
f 11/39/9 10/110/9 31/37/9
f 14/111/9 37/112/9 31/37/9
f 33/38/9 38/113/9 15/114/9
f 10/110/9 14/111/9 31/37/9
f 33/38/9 15/114/9 11/39/9
f 9/40/1 13/115/1 14/41/1
f 12/43/10 22/116/10 23/44/10
f 9/46/7 1/117/7 19/47/7
f 1/49/7 5/118/7 18/50/7
f 5/52/7 12/119/7 17/53/7
f 21/55/11 24/120/11 23/56/11
f 25/58/12 28/121/12 27/59/12
f 18/61/3 17/122/3 25/62/3
f 12/64/3 16/123/3 21/65/3
f 13/67/13 24/124/13 21/68/13
f 20/70/14 28/125/14 25/71/14
f 9/73/1 23/126/1 24/74/1
f 18/76/15 26/127/15 27/77/15
f 38/81/1 33/128/1 34/129/1
f 34/129/1 36/79/1 38/81/1
f 30/130/3 32/84/3 37/83/3
f 37/83/3 29/131/3 30/130/3
f 2/132/4 13/133/4 30/87/4
f 13/133/4 32/134/4 30/87/4
f 34/135/4 16/136/4 36/85/4
f 2/132/4 30/87/4 6/86/4
f 36/85/4 16/136/4 6/86/4
f 32/88/16 34/137/16 33/89/16
f 36/91/17 30/138/17 29/92/17
