# Blender v2.79 (sub 0) OBJ File: 'turret_body.blend'
# www.blender.org
mtllib turret_body.mtl
o Cube.002_Cube.003
v 1.038657 0.438414 -0.489302
v 1.038657 0.478414 -0.489302
v 1.038657 0.438414 -0.529302
v 1.038657 0.478414 -0.529302
v 1.078657 0.438414 -0.489302
v 1.078657 0.478414 -0.489302
v 1.078657 0.438414 -0.529302
v 1.078657 0.478414 -0.529302
v 0.882314 0.245482 -0.409324
v 0.882314 0.445482 -0.409324
v 0.882314 0.245482 -0.609324
v 0.882314 0.445482 -0.609324
v 1.082314 0.245482 -0.409324
v 1.082314 0.445482 -0.409324
v 1.082314 0.245482 -0.609324
v 1.082314 0.445482 -0.609324
v 1.082314 0.445482 -0.609324
v 1.082314 0.245482 -0.609324
v 1.082314 0.245482 -0.409324
v 1.082314 0.445482 -0.409324
v 1.082314 0.426025 -0.589867
v 1.082314 0.264939 -0.589867
v 1.082314 0.264939 -0.428781
v 1.082314 0.426025 -0.428781
v 0.820080 0.426025 -0.589867
v 0.820080 0.264939 -0.589867
v 0.820080 0.264939 -0.428781
v 0.820080 0.426025 -0.428781
v 0.100000 0.000000 -0.150000
v 0.100000 0.700000 -0.150000
v 0.100000 0.000000 -0.850000
v 0.100000 0.700000 -0.850000
v 0.900000 0.000000 -0.150000
v 0.900000 0.700000 -0.150000
v 0.900000 0.000000 -0.850000
v 0.900000 0.700000 -0.850000
v 1.038657 0.438414 -0.529302
v 1.038657 0.438414 -0.489302
v 1.038657 0.478414 -0.489302
v 1.038657 0.478414 -0.529302
v 1.078657 0.438414 -0.529302
v 1.078657 0.478414 -0.529302
v 1.078657 0.438414 -0.489302
v 1.078657 0.478414 -0.489302
v 0.882314 0.245482 -0.609324
v 0.882314 0.245482 -0.409324
v 0.882314 0.445482 -0.409324
v 0.882314 0.445482 -0.609324
v 1.082314 0.245482 -0.609324
v 1.082314 0.445482 -0.609324
v 1.082314 0.245482 -0.409324
v 1.082314 0.445482 -0.409324
v 1.082314 0.445482 -0.609324
v 1.082314 0.245482 -0.609324
v 1.082314 0.245482 -0.409324
v 1.082314 0.445482 -0.409324
v 1.082314 0.426025 -0.589867
v 1.082314 0.264939 -0.589867
v 1.082314 0.264939 -0.428781
v 1.082314 0.426025 -0.428781
v 0.820080 0.426025 -0.589867
v 0.820080 0.264939 -0.589867
v 0.820080 0.264939 -0.428781
v 0.820080 0.426025 -0.428781
v 0.100000 0.000000 -0.850000
v 0.100000 0.000000 -0.150000
v 0.100000 0.700000 -0.150000
v 0.100000 0.700000 -0.850000
v 0.900000 0.000000 -0.850000
v 0.900000 0.700000 -0.850000
v 0.900000 0.000000 -0.150000
v 0.900000 0.700000 -0.150000
v 0.892800 0.618610 -0.764799
v 0.892800 0.658610 -0.764799
v 0.892800 0.618610 -0.804799
v 0.892800 0.658610 -0.804799
v 0.932801 0.618610 -0.764799
v 0.932801 0.658610 -0.764799
v 0.932801 0.618610 -0.804799
v 0.932801 0.658610 -0.804799
vt 0.957207 0.431049
vt 0.942979 0.445277
vt 0.942979 0.431049
vt 0.938505 0.735266
vt 0.924277 0.749494
vt 0.924277 0.735266
vt 0.918344 0.852126
vt 0.932572 0.837898
vt 0.932572 0.852126
vt 0.932572 0.836885
vt 0.918344 0.822658
vt 0.932572 0.822658
vt 0.915525 0.072658
vt 0.929753 0.086886
vt 0.915525 0.086886
vt 0.930161 0.731189
vt 0.915933 0.716961
vt 0.930161 0.716961
vt 0.987073 0.500506
vt 0.915933 0.571645
vt 0.915933 0.500506
vt 0.879955 0.867126
vt 0.808816 0.938265
vt 0.808816 0.867126
vt 0.931856 0.166102
vt 0.929367 0.094805
vt 0.930611 0.094794
vt 0.880967 0.938265
vt 0.952107 0.867126
vt 0.952107 0.938265
vt 0.857215 0.322658
vt 0.928355 0.393797
vt 0.857215 0.393797
vt 0.928355 0.165934
vt 0.857215 0.094794
vt 0.928355 0.094794
vt 0.857215 0.249494
vt 0.921434 0.242573
vt 0.928355 0.249494
vt 0.857215 0.477383
vt 0.928502 0.474894
vt 0.928513 0.476138
vt 0.928513 0.478395
vt 0.857226 0.480884
vt 0.857215 0.479639
vt 0.929367 0.167114
vt 0.931856 0.238401
vt 0.930611 0.238411
vt 0.808816 0.866114
vt 0.902092 0.808816
vt 0.902092 0.866114
vt 0.921434 0.473882
vt 0.857215 0.466961
vt 0.928355 0.466961
vt 0.930787 0.579578
vt 0.923867 0.643797
vt 0.923867 0.572658
vt 0.930787 0.715949
vt 0.923867 0.651730
vt 0.930787 0.644809
vt 0.807804 0.902092
vt 0.750506 0.844794
vt 0.807804 0.844794
vt 0.914513 0.093782
vt 0.857215 0.000506
vt 0.914513 0.000506
vt 0.821645 0.674424
vt 0.914921 0.617126
vt 0.914921 0.674424
vt 0.807804 0.843782
vt 0.750506 0.750506
vt 0.807804 0.750506
vt 0.148524 0.943465
vt 0.114311 0.977677
vt 0.114311 0.943465
vt 0.060875 0.878199
vt 0.018828 0.914990
vt 0.018828 0.878199
vt 0.050717 0.950523
vt 0.020701 0.980539
vt 0.020701 0.950523
vt 0.067342 0.971071
vt 0.099173 0.943219
vt 0.099173 0.971071
vt 0.204493 0.843755
vt 0.231230 0.867150
vt 0.204493 0.867150
vt 0.179299 0.855303
vt 0.147290 0.827295
vt 0.179299 0.827295
vt 0.929367 0.250506
vt 0.943595 0.264734
vt 0.929367 0.264734
vt 0.929367 0.265746
vt 0.943595 0.279974
vt 0.929367 0.279974
vt 0.943595 0.295214
vt 0.929367 0.280986
vt 0.943595 0.280986
vt 0.943595 0.310454
vt 0.929367 0.296226
vt 0.943595 0.296226
vt 0.917332 0.837898
vt 0.903104 0.852126
vt 0.903104 0.837898
vt 0.909037 0.749494
vt 0.923265 0.735266
vt 0.923265 0.749494
vt 0.915525 0.000506
vt 0.986665 0.071645
vt 0.915525 0.071645
vt 0.857215 0.394809
vt 0.928355 0.465949
vt 0.857215 0.465949
vt 0.929367 0.473882
vt 0.930611 0.402584
vt 0.930611 0.473882
vt 0.928355 0.321645
vt 0.857215 0.250506
vt 0.928355 0.250506
vt 0.857215 0.238085
vt 0.928355 0.166946
vt 0.928355 0.238085
vt 0.903104 0.821645
vt 0.974243 0.750506
vt 0.974243 0.821645
vt 0.892785 0.742573
vt 0.828566 0.749494
vt 0.821645 0.742573
vt 0.857215 0.240317
vt 0.928513 0.241561
vt 0.857215 0.241561
vt 0.928513 0.498380
vt 0.857215 0.497136
vt 0.928513 0.497136
vt 0.930611 0.322658
vt 0.929367 0.393955
vt 0.929367 0.322658
vt 0.902092 0.807804
vt 0.808816 0.750506
vt 0.902092 0.750506
vt 0.821645 0.740667
vt 0.885864 0.733746
vt 0.892785 0.740667
vt 0.922854 0.643797
vt 0.915934 0.579578
vt 0.922854 0.572658
vt 0.915933 0.715949
vt 0.922854 0.651730
vt 0.922854 0.709028
vt 0.807804 0.960402
vt 0.750506 0.903104
vt 0.807804 0.903104
vt 0.914921 0.616114
vt 0.821646 0.558816
vt 0.914921 0.558816
vt 0.914921 0.732733
vt 0.821645 0.675436
vt 0.914921 0.675436
vt 0.914921 0.557804
vt 0.821645 0.500506
vt 0.914921 0.500506
vt 0.227801 0.896154
vt 0.199636 0.924318
vt 0.199636 0.896154
vt 0.014873 0.820683
vt 0.064831 0.864395
vt 0.014873 0.864395
vt 0.116412 0.920251
vt 0.073037 0.876875
vt 0.116412 0.876875
vt 0.087117 0.823968
vt 0.122231 0.854693
vt 0.087117 0.854693
vt 0.212872 0.946756
vt 0.167617 0.986354
vt 0.167617 0.946756
vt 0.177213 0.879164
vt 0.128867 0.921466
vt 0.128867 0.879164
vt 0.043722 0.068973
vt 0.149622 0.174873
vt 0.043722 0.174873
vt 0.164657 0.427734
vt 0.043575 0.306652
vt 0.164657 0.306652
vt 0.327572 0.581893
vt 0.191411 0.445733
vt 0.327572 0.445733
vt 0.183806 0.718927
vt 0.058814 0.593935
vt 0.183806 0.593935
vt 0.173300 0.586004
vt 0.038839 0.451543
vt 0.173300 0.451543
vt 0.155756 0.294863
vt 0.046264 0.185370
vt 0.155756 0.185370
vt 0.957207 0.445277
vt 0.938505 0.749494
vt 0.918344 0.837898
vt 0.918344 0.836885
vt 0.929753 0.072658
vt 0.915933 0.731189
vt 0.987073 0.571645
vt 0.879955 0.938265
vt 0.930611 0.166102
vt 0.880967 0.867126
vt 0.928355 0.322658
vt 0.857215 0.165934
vt 0.864136 0.242573
vt 0.857215 0.476138
vt 0.928513 0.479639
vt 0.930611 0.167114
vt 0.808816 0.808816
vt 0.864136 0.473882
vt 0.930787 0.636876
vt 0.923867 0.709028
vt 0.750506 0.902092
vt 0.857215 0.093782
vt 0.821646 0.617126
vt 0.750506 0.843782
vt 0.148524 0.977677
vt 0.060875 0.914990
vt 0.050717 0.980539
vt 0.067342 0.943219
vt 0.231230 0.843755
vt 0.147290 0.855303
vt 0.943595 0.250506
vt 0.943595 0.265746
vt 0.929367 0.295214
vt 0.929367 0.310454
vt 0.917332 0.852126
vt 0.909037 0.735266
vt 0.986665 0.000506
vt 0.928355 0.394809
vt 0.929367 0.402584
vt 0.857215 0.321645
vt 0.857215 0.166946
vt 0.903104 0.750506
vt 0.885864 0.749494
vt 0.928513 0.240317
vt 0.857215 0.498380
vt 0.930611 0.393955
vt 0.808816 0.807804
vt 0.828566 0.733746
vt 0.915933 0.636876
vt 0.915933 0.644809
vt 0.750506 0.960402
vt 0.821645 0.616114
vt 0.821645 0.732733
vt 0.821645 0.557804
vt 0.227801 0.924318
vt 0.064831 0.820683
vt 0.073037 0.920251
vt 0.122231 0.823968
vt 0.212872 0.986354
vt 0.177213 0.921466
vt 0.149622 0.068973
vt 0.043575 0.427734
vt 0.191411 0.581893
vt 0.058814 0.718927
vt 0.038839 0.586004
vt 0.046264 0.294863
vn 1.0000 0.0000 0.0000
vn 0.0000 0.0000 1.0000
vn -1.0000 0.0000 0.0000
vn 0.0000 0.0000 -1.0000
vn 0.0000 1.0000 0.0000
vn 0.0000 -1.0000 0.0000
usemtl None
s off
f 3/1/1 2/2/1 1/3/1
f 7/4/2 4/5/2 3/6/2
f 5/7/3 8/8/3 7/9/3
f 1/10/4 6/11/4 5/12/4
f 1/13/5 7/14/5 3/15/5
f 6/16/6 4/17/6 8/18/6
f 11/19/1 10/20/1 9/21/1
f 15/22/2 12/23/2 11/24/2
f 14/25/2 19/26/2 13/27/2
f 9/28/4 14/29/4 13/30/4
f 9/31/5 15/32/5 11/33/5
f 14/34/6 12/35/6 16/36/6
f 19/37/3 22/38/3 18/39/3
f 13/40/2 18/41/2 15/42/2
f 16/43/2 20/44/2 14/45/2
f 15/46/2 17/47/2 16/48/2
f 25/49/5 24/50/5 21/51/5
f 21/52/3 20/53/3 17/54/3
f 22/55/3 17/56/3 18/57/3
f 20/58/3 23/59/3 19/60/3
f 27/61/3 25/62/3 26/63/3
f 26/64/4 21/65/4 22/66/4
f 28/67/2 23/68/2 24/69/2
f 27/70/6 22/71/6 23/72/6
f 31/73/1 30/74/1 29/75/1
f 35/76/2 32/77/2 31/78/2
f 33/79/3 36/80/3 35/81/3
f 29/82/4 34/83/4 33/84/4
f 29/85/5 35/86/5 31/87/5
f 34/88/6 32/89/6 36/90/6
f 39/91/3 37/92/3 38/93/3
f 40/94/4 41/95/4 37/96/4
f 42/97/1 43/98/1 41/99/1
f 44/100/2 38/101/2 43/102/2
f 41/103/6 38/104/6 37/105/6
f 40/106/5 44/107/5 42/108/5
f 47/109/3 45/110/3 46/111/3
f 48/112/4 49/113/4 45/114/4
f 52/115/2 55/116/2 56/117/2
f 52/118/2 46/119/2 51/120/2
f 49/121/6 46/122/6 45/123/6
f 48/124/5 52/125/5 50/126/5
f 54/127/1 59/128/1 55/129/1
f 51/130/2 54/131/2 55/132/2
f 50/133/2 56/134/2 53/135/2
f 49/136/2 53/137/2 54/138/2
f 60/139/6 61/140/6 57/141/6
f 56/142/1 57/143/1 53/144/1
f 53/145/1 58/146/1 54/147/1
f 56/148/1 59/149/1 60/150/1
f 61/151/1 63/152/1 62/153/1
f 57/154/2 62/155/2 58/156/2
f 59/157/4 64/158/4 60/159/4
f 58/160/5 63/161/5 59/162/5
f 67/163/3 65/164/3 66/165/3
f 68/166/4 69/167/4 65/168/4
f 70/169/1 71/170/1 69/171/1
f 72/172/2 66/173/2 71/174/2
f 69/175/6 66/176/6 65/177/6
f 68/178/5 72/179/5 70/180/5
f 74/181/3 75/182/3 73/183/3
f 76/184/4 79/185/4 75/186/4
f 80/187/1 77/188/1 79/189/1
f 78/190/2 73/191/2 77/192/2
f 79/193/6 73/194/6 75/195/6
f 76/196/5 78/197/5 80/198/5
f 3/1/1 4/199/1 2/2/1
f 7/4/2 8/200/2 4/5/2
f 5/7/3 6/201/3 8/8/3
f 1/10/4 2/202/4 6/11/4
f 1/13/5 5/203/5 7/14/5
f 6/16/6 2/204/6 4/17/6
f 11/19/1 12/205/1 10/20/1
f 15/22/2 16/206/2 12/23/2
f 14/25/2 20/207/2 19/26/2
f 9/28/4 10/208/4 14/29/4
f 9/31/5 13/209/5 15/32/5
f 14/34/6 10/210/6 12/35/6
f 19/37/3 23/211/3 22/38/3
f 13/40/2 19/212/2 18/41/2
f 16/43/2 17/213/2 20/44/2
f 15/46/2 18/214/2 17/47/2
f 25/49/5 28/215/5 24/50/5
f 21/52/3 24/216/3 20/53/3
f 22/55/3 21/217/3 17/56/3
f 20/58/3 24/218/3 23/59/3
f 27/61/3 28/219/3 25/62/3
f 26/64/4 25/220/4 21/65/4
f 28/67/2 27/221/2 23/68/2
f 27/70/6 26/222/6 22/71/6
f 31/73/1 32/223/1 30/74/1
f 35/76/2 36/224/2 32/77/2
f 33/79/3 34/225/3 36/80/3
f 29/82/4 30/226/4 34/83/4
f 29/85/5 33/227/5 35/86/5
f 34/88/6 30/228/6 32/89/6
f 39/91/3 40/229/3 37/92/3
f 40/94/4 42/230/4 41/95/4
f 42/97/1 44/231/1 43/98/1
f 44/100/2 39/232/2 38/101/2
f 41/103/6 43/233/6 38/104/6
f 40/106/5 39/234/5 44/107/5
f 47/109/3 48/235/3 45/110/3
f 48/112/4 50/236/4 49/113/4
f 52/115/2 51/237/2 55/116/2
f 52/118/2 47/238/2 46/119/2
f 49/121/6 51/239/6 46/122/6
f 48/124/5 47/240/5 52/125/5
f 54/127/1 58/241/1 59/128/1
f 51/130/2 49/242/2 54/131/2
f 50/133/2 52/243/2 56/134/2
f 49/136/2 50/244/2 53/137/2
f 60/139/6 64/245/6 61/140/6
f 56/142/1 60/246/1 57/143/1
f 53/145/1 57/247/1 58/146/1
f 56/148/1 55/248/1 59/149/1
f 61/151/1 64/249/1 63/152/1
f 57/154/2 61/250/2 62/155/2
f 59/157/4 63/251/4 64/158/4
f 58/160/5 62/252/5 63/161/5
f 67/163/3 68/253/3 65/164/3
f 68/166/4 70/254/4 69/167/4
f 70/169/1 72/255/1 71/170/1
f 72/172/2 67/256/2 66/173/2
f 69/175/6 71/257/6 66/176/6
f 68/178/5 67/258/5 72/179/5
f 74/181/3 76/259/3 75/182/3
f 76/184/4 80/260/4 79/185/4
f 80/187/1 78/261/1 77/188/1
f 78/190/2 74/262/2 73/191/2
f 79/193/6 77/263/6 73/194/6
f 76/196/5 74/264/5 78/197/5
